G75*
%MOIN*%
%OFA0B0*%
%FSLAX25Y25*%
%IPPOS*%
%LPD*%
%AMOC8*
5,1,8,0,0,1.08239X$1,22.5*
%
%ADD10C,0.01400*%
%ADD11C,0.20000*%
%ADD12C,0.01000*%
%ADD13C,0.02500*%
%ADD14C,0.01600*%
%ADD15C,0.03200*%
%ADD16C,0.02700*%
D10*
X0446202Y0030228D02*
X0446258Y0030346D01*
X0446310Y0030466D01*
X0446359Y0030587D01*
X0446405Y0030710D01*
X0446446Y0030834D01*
X0446485Y0030959D01*
X0446520Y0031085D01*
X0446551Y0031212D01*
X0446578Y0031340D01*
X0446602Y0031469D01*
X0446623Y0031598D01*
X0446639Y0031728D01*
X0446652Y0031858D01*
X0446662Y0031988D01*
X0446667Y0032119D01*
X0446669Y0032250D01*
X0443557Y0032250D02*
X0443559Y0032381D01*
X0443564Y0032512D01*
X0443574Y0032642D01*
X0443587Y0032772D01*
X0443603Y0032902D01*
X0443624Y0033031D01*
X0443648Y0033160D01*
X0443675Y0033288D01*
X0443706Y0033415D01*
X0443741Y0033541D01*
X0443780Y0033666D01*
X0443821Y0033790D01*
X0443867Y0033913D01*
X0443916Y0034034D01*
X0443968Y0034154D01*
X0444024Y0034272D01*
X0443868Y0033806D02*
X0446357Y0030694D01*
X0445113Y0029450D02*
X0445048Y0029452D01*
X0444983Y0029457D01*
X0444919Y0029466D01*
X0444856Y0029479D01*
X0444793Y0029495D01*
X0444731Y0029515D01*
X0444670Y0029538D01*
X0444611Y0029565D01*
X0444554Y0029595D01*
X0444498Y0029628D01*
X0444444Y0029664D01*
X0444392Y0029704D01*
X0444343Y0029746D01*
X0444296Y0029790D01*
X0444251Y0029838D01*
X0444210Y0029887D01*
X0444171Y0029940D01*
X0444135Y0029994D01*
X0444103Y0030050D01*
X0444073Y0030108D01*
X0444047Y0030167D01*
X0444024Y0030228D01*
X0445113Y0029450D02*
X0445178Y0029452D01*
X0445243Y0029457D01*
X0445307Y0029466D01*
X0445370Y0029479D01*
X0445433Y0029495D01*
X0445495Y0029515D01*
X0445556Y0029538D01*
X0445615Y0029565D01*
X0445672Y0029595D01*
X0445728Y0029628D01*
X0445782Y0029664D01*
X0445834Y0029704D01*
X0445883Y0029746D01*
X0445930Y0029790D01*
X0445975Y0029838D01*
X0446016Y0029887D01*
X0446055Y0029940D01*
X0446091Y0029994D01*
X0446123Y0030050D01*
X0446153Y0030108D01*
X0446179Y0030167D01*
X0446202Y0030228D01*
X0444024Y0030228D02*
X0443968Y0030346D01*
X0443916Y0030466D01*
X0443867Y0030587D01*
X0443821Y0030710D01*
X0443780Y0030834D01*
X0443741Y0030959D01*
X0443706Y0031085D01*
X0443675Y0031212D01*
X0443648Y0031340D01*
X0443624Y0031469D01*
X0443603Y0031598D01*
X0443587Y0031728D01*
X0443574Y0031858D01*
X0443564Y0031988D01*
X0443559Y0032119D01*
X0443557Y0032250D01*
X0446669Y0032250D02*
X0446667Y0032381D01*
X0446662Y0032512D01*
X0446652Y0032642D01*
X0446639Y0032772D01*
X0446623Y0032902D01*
X0446602Y0033031D01*
X0446578Y0033160D01*
X0446551Y0033288D01*
X0446520Y0033415D01*
X0446485Y0033541D01*
X0446446Y0033666D01*
X0446405Y0033790D01*
X0446359Y0033913D01*
X0446310Y0034034D01*
X0446258Y0034154D01*
X0446202Y0034272D01*
X0445113Y0035050D02*
X0445048Y0035048D01*
X0444983Y0035043D01*
X0444919Y0035034D01*
X0444856Y0035021D01*
X0444793Y0035005D01*
X0444731Y0034985D01*
X0444670Y0034962D01*
X0444611Y0034935D01*
X0444554Y0034905D01*
X0444498Y0034872D01*
X0444444Y0034836D01*
X0444392Y0034796D01*
X0444343Y0034754D01*
X0444296Y0034710D01*
X0444251Y0034662D01*
X0444210Y0034613D01*
X0444171Y0034560D01*
X0444135Y0034506D01*
X0444103Y0034450D01*
X0444073Y0034392D01*
X0444047Y0034333D01*
X0444024Y0034272D01*
X0445113Y0035050D02*
X0445178Y0035048D01*
X0445243Y0035043D01*
X0445307Y0035034D01*
X0445370Y0035021D01*
X0445433Y0035005D01*
X0445495Y0034985D01*
X0445556Y0034961D01*
X0445615Y0034935D01*
X0445672Y0034905D01*
X0445728Y0034872D01*
X0445782Y0034836D01*
X0445834Y0034796D01*
X0445883Y0034754D01*
X0445930Y0034710D01*
X0445975Y0034662D01*
X0446016Y0034613D01*
X0446055Y0034560D01*
X0446091Y0034506D01*
X0446123Y0034450D01*
X0446153Y0034392D01*
X0446179Y0034333D01*
X0446202Y0034272D01*
X0451267Y0035050D02*
X0451267Y0029450D01*
X0452823Y0029450D02*
X0449711Y0029450D01*
X0452823Y0033806D02*
X0451267Y0035050D01*
X0455561Y0033183D02*
X0456806Y0029450D01*
X0458050Y0033183D01*
D11*
X0383750Y0075250D03*
X0328750Y0075250D03*
X0273750Y0075250D03*
X0218750Y0075250D03*
X0163750Y0075250D03*
X0108750Y0075250D03*
X0108750Y0139750D03*
X0163750Y0139750D03*
X0218750Y0139750D03*
X0273750Y0139750D03*
X0328750Y0139750D03*
X0383750Y0139750D03*
X0381250Y0207250D03*
X0326250Y0207250D03*
X0273750Y0207250D03*
X0218750Y0207250D03*
X0163750Y0207250D03*
X0108750Y0207250D03*
X0048750Y0232250D03*
X0443750Y0232250D03*
D12*
X0431807Y0231448D02*
X0455693Y0231448D01*
X0455750Y0232250D02*
X0455628Y0230542D01*
X0455264Y0228869D01*
X0454666Y0227265D01*
X0453845Y0225762D01*
X0452819Y0224392D01*
X0451608Y0223181D01*
X0450238Y0222155D01*
X0448735Y0221334D01*
X0447131Y0220736D01*
X0445458Y0220372D01*
X0443750Y0220250D01*
X0442042Y0220372D01*
X0440369Y0220736D01*
X0438765Y0221334D01*
X0437262Y0222155D01*
X0435892Y0223181D01*
X0434681Y0224392D01*
X0433655Y0225762D01*
X0432834Y0227265D01*
X0432236Y0228869D01*
X0431872Y0230542D01*
X0431750Y0232250D01*
X0431750Y0251250D01*
X0455750Y0251250D01*
X0455750Y0232250D01*
X0455750Y0232446D02*
X0431750Y0232446D01*
X0431750Y0233445D02*
X0455750Y0233445D01*
X0455750Y0234443D02*
X0431750Y0234443D01*
X0431750Y0235442D02*
X0455750Y0235442D01*
X0455750Y0236440D02*
X0431750Y0236440D01*
X0431750Y0237439D02*
X0455750Y0237439D01*
X0455750Y0238437D02*
X0431750Y0238437D01*
X0431750Y0239436D02*
X0455750Y0239436D01*
X0455750Y0240434D02*
X0431750Y0240434D01*
X0431750Y0241433D02*
X0455750Y0241433D01*
X0455750Y0242431D02*
X0431750Y0242431D01*
X0431750Y0243430D02*
X0455750Y0243430D01*
X0455750Y0244428D02*
X0431750Y0244428D01*
X0431750Y0245427D02*
X0455750Y0245427D01*
X0455750Y0246425D02*
X0431750Y0246425D01*
X0431750Y0247424D02*
X0455750Y0247424D01*
X0455750Y0248422D02*
X0431750Y0248422D01*
X0431750Y0249421D02*
X0455750Y0249421D01*
X0455750Y0250420D02*
X0431750Y0250420D01*
X0431892Y0230449D02*
X0455608Y0230449D01*
X0455390Y0229451D02*
X0432110Y0229451D01*
X0432392Y0228452D02*
X0455108Y0228452D01*
X0454736Y0227454D02*
X0432764Y0227454D01*
X0433277Y0226455D02*
X0454223Y0226455D01*
X0453616Y0225457D02*
X0433884Y0225457D01*
X0434631Y0224458D02*
X0452869Y0224458D01*
X0451887Y0223460D02*
X0435613Y0223460D01*
X0436853Y0222461D02*
X0450647Y0222461D01*
X0448970Y0221463D02*
X0438530Y0221463D01*
X0441619Y0220464D02*
X0445881Y0220464D01*
X0393250Y0220464D02*
X0369250Y0220464D01*
X0369250Y0219466D02*
X0393250Y0219466D01*
X0393250Y0218467D02*
X0369250Y0218467D01*
X0369250Y0217469D02*
X0393250Y0217469D01*
X0393250Y0216470D02*
X0369250Y0216470D01*
X0369250Y0215472D02*
X0393250Y0215472D01*
X0393250Y0214473D02*
X0369250Y0214473D01*
X0369250Y0213475D02*
X0393250Y0213475D01*
X0393250Y0212476D02*
X0369250Y0212476D01*
X0369250Y0211478D02*
X0393250Y0211478D01*
X0393250Y0210479D02*
X0369250Y0210479D01*
X0369250Y0209481D02*
X0393250Y0209481D01*
X0393250Y0208482D02*
X0369250Y0208482D01*
X0369250Y0207484D02*
X0393250Y0207484D01*
X0393250Y0207250D02*
X0393250Y0226250D01*
X0369250Y0226250D01*
X0369250Y0207250D01*
X0369372Y0205542D01*
X0369736Y0203869D01*
X0370334Y0202265D01*
X0371155Y0200762D01*
X0372181Y0199392D01*
X0373392Y0198181D01*
X0374762Y0197155D01*
X0376265Y0196334D01*
X0377869Y0195736D01*
X0379542Y0195372D01*
X0381250Y0195250D01*
X0382958Y0195372D01*
X0384631Y0195736D01*
X0386235Y0196334D01*
X0387738Y0197155D01*
X0389108Y0198181D01*
X0390319Y0199392D01*
X0391345Y0200762D01*
X0392166Y0202265D01*
X0392764Y0203869D01*
X0393128Y0205542D01*
X0393250Y0207250D01*
X0393195Y0206485D02*
X0369305Y0206485D01*
X0369384Y0205487D02*
X0393116Y0205487D01*
X0392899Y0204488D02*
X0369601Y0204488D01*
X0369878Y0203489D02*
X0392622Y0203489D01*
X0392250Y0202491D02*
X0370250Y0202491D01*
X0370756Y0201492D02*
X0391744Y0201492D01*
X0391144Y0200494D02*
X0371356Y0200494D01*
X0372103Y0199495D02*
X0390397Y0199495D01*
X0389424Y0198497D02*
X0373076Y0198497D01*
X0374304Y0197498D02*
X0388196Y0197498D01*
X0386538Y0196500D02*
X0375962Y0196500D01*
X0378948Y0195501D02*
X0383552Y0195501D01*
X0393250Y0221463D02*
X0369250Y0221463D01*
X0369250Y0222461D02*
X0393250Y0222461D01*
X0393250Y0223460D02*
X0369250Y0223460D01*
X0369250Y0224458D02*
X0393250Y0224458D01*
X0393250Y0225457D02*
X0369250Y0225457D01*
X0338250Y0225457D02*
X0314250Y0225457D01*
X0314250Y0226250D02*
X0314250Y0207250D01*
X0314372Y0205542D01*
X0314736Y0203869D01*
X0315334Y0202265D01*
X0316155Y0200762D01*
X0317181Y0199392D01*
X0318392Y0198181D01*
X0319762Y0197155D01*
X0321265Y0196334D01*
X0322869Y0195736D01*
X0324542Y0195372D01*
X0326250Y0195250D01*
X0327958Y0195372D01*
X0329631Y0195736D01*
X0331235Y0196334D01*
X0332738Y0197155D01*
X0334108Y0198181D01*
X0335319Y0199392D01*
X0336345Y0200762D01*
X0337166Y0202265D01*
X0337764Y0203869D01*
X0338128Y0205542D01*
X0338250Y0207250D01*
X0338250Y0226250D01*
X0314250Y0226250D01*
X0314250Y0224458D02*
X0338250Y0224458D01*
X0338250Y0223460D02*
X0314250Y0223460D01*
X0314250Y0222461D02*
X0338250Y0222461D01*
X0338250Y0221463D02*
X0314250Y0221463D01*
X0314250Y0220464D02*
X0338250Y0220464D01*
X0338250Y0219466D02*
X0314250Y0219466D01*
X0314250Y0218467D02*
X0338250Y0218467D01*
X0338250Y0217469D02*
X0314250Y0217469D01*
X0314250Y0216470D02*
X0338250Y0216470D01*
X0338250Y0215472D02*
X0314250Y0215472D01*
X0314250Y0214473D02*
X0338250Y0214473D01*
X0338250Y0213475D02*
X0314250Y0213475D01*
X0314250Y0212476D02*
X0338250Y0212476D01*
X0338250Y0211478D02*
X0314250Y0211478D01*
X0314250Y0210479D02*
X0338250Y0210479D01*
X0338250Y0209481D02*
X0314250Y0209481D01*
X0314250Y0208482D02*
X0338250Y0208482D01*
X0338250Y0207484D02*
X0314250Y0207484D01*
X0314305Y0206485D02*
X0338195Y0206485D01*
X0338116Y0205487D02*
X0314384Y0205487D01*
X0314601Y0204488D02*
X0337899Y0204488D01*
X0337622Y0203489D02*
X0314878Y0203489D01*
X0315250Y0202491D02*
X0337250Y0202491D01*
X0336744Y0201492D02*
X0315756Y0201492D01*
X0316356Y0200494D02*
X0336144Y0200494D01*
X0335397Y0199495D02*
X0317103Y0199495D01*
X0318076Y0198497D02*
X0334424Y0198497D01*
X0333196Y0197498D02*
X0319304Y0197498D01*
X0320962Y0196500D02*
X0331538Y0196500D01*
X0328552Y0195501D02*
X0323948Y0195501D01*
X0285264Y0203869D02*
X0284666Y0202265D01*
X0283845Y0200762D01*
X0282819Y0199392D01*
X0281608Y0198181D01*
X0280238Y0197155D01*
X0278735Y0196334D01*
X0277131Y0195736D01*
X0275458Y0195372D01*
X0273750Y0195250D01*
X0272042Y0195372D01*
X0270369Y0195736D01*
X0268765Y0196334D01*
X0267262Y0197155D01*
X0265892Y0198181D01*
X0264681Y0199392D01*
X0263655Y0200762D01*
X0262834Y0202265D01*
X0262236Y0203869D01*
X0261872Y0205542D01*
X0261750Y0207250D01*
X0261750Y0226250D01*
X0285750Y0226250D01*
X0285750Y0207250D01*
X0285628Y0205542D01*
X0285264Y0203869D01*
X0285122Y0203489D02*
X0262378Y0203489D01*
X0262101Y0204488D02*
X0285399Y0204488D01*
X0285616Y0205487D02*
X0261884Y0205487D01*
X0261805Y0206485D02*
X0285695Y0206485D01*
X0285750Y0207484D02*
X0261750Y0207484D01*
X0261750Y0208482D02*
X0285750Y0208482D01*
X0285750Y0209481D02*
X0261750Y0209481D01*
X0261750Y0210479D02*
X0285750Y0210479D01*
X0285750Y0211478D02*
X0261750Y0211478D01*
X0261750Y0212476D02*
X0285750Y0212476D01*
X0285750Y0213475D02*
X0261750Y0213475D01*
X0261750Y0214473D02*
X0285750Y0214473D01*
X0285750Y0215472D02*
X0261750Y0215472D01*
X0261750Y0216470D02*
X0285750Y0216470D01*
X0285750Y0217469D02*
X0261750Y0217469D01*
X0261750Y0218467D02*
X0285750Y0218467D01*
X0285750Y0219466D02*
X0261750Y0219466D01*
X0261750Y0220464D02*
X0285750Y0220464D01*
X0285750Y0221463D02*
X0261750Y0221463D01*
X0261750Y0222461D02*
X0285750Y0222461D01*
X0285750Y0223460D02*
X0261750Y0223460D01*
X0261750Y0224458D02*
X0285750Y0224458D01*
X0285750Y0225457D02*
X0261750Y0225457D01*
X0230750Y0225457D02*
X0206750Y0225457D01*
X0206750Y0226250D02*
X0206750Y0207250D01*
X0206872Y0205542D01*
X0207236Y0203869D01*
X0207834Y0202265D01*
X0208655Y0200762D01*
X0209681Y0199392D01*
X0210892Y0198181D01*
X0212262Y0197155D01*
X0213765Y0196334D01*
X0215369Y0195736D01*
X0217042Y0195372D01*
X0218750Y0195250D01*
X0220458Y0195372D01*
X0222131Y0195736D01*
X0223735Y0196334D01*
X0225238Y0197155D01*
X0226608Y0198181D01*
X0227819Y0199392D01*
X0228845Y0200762D01*
X0229666Y0202265D01*
X0230264Y0203869D01*
X0230628Y0205542D01*
X0230750Y0207250D01*
X0230750Y0226250D01*
X0206750Y0226250D01*
X0206750Y0224458D02*
X0230750Y0224458D01*
X0230750Y0223460D02*
X0206750Y0223460D01*
X0206750Y0222461D02*
X0230750Y0222461D01*
X0230750Y0221463D02*
X0206750Y0221463D01*
X0206750Y0220464D02*
X0230750Y0220464D01*
X0230750Y0219466D02*
X0206750Y0219466D01*
X0206750Y0218467D02*
X0230750Y0218467D01*
X0230750Y0217469D02*
X0206750Y0217469D01*
X0206750Y0216470D02*
X0230750Y0216470D01*
X0230750Y0215472D02*
X0206750Y0215472D01*
X0206750Y0214473D02*
X0230750Y0214473D01*
X0230750Y0213475D02*
X0206750Y0213475D01*
X0206750Y0212476D02*
X0230750Y0212476D01*
X0230750Y0211478D02*
X0206750Y0211478D01*
X0206750Y0210479D02*
X0230750Y0210479D01*
X0230750Y0209481D02*
X0206750Y0209481D01*
X0206750Y0208482D02*
X0230750Y0208482D01*
X0230750Y0207484D02*
X0206750Y0207484D01*
X0206805Y0206485D02*
X0230695Y0206485D01*
X0230616Y0205487D02*
X0206884Y0205487D01*
X0207101Y0204488D02*
X0230399Y0204488D01*
X0230122Y0203489D02*
X0207378Y0203489D01*
X0207750Y0202491D02*
X0229750Y0202491D01*
X0229244Y0201492D02*
X0208256Y0201492D01*
X0208856Y0200494D02*
X0228644Y0200494D01*
X0227897Y0199495D02*
X0209603Y0199495D01*
X0210576Y0198497D02*
X0226924Y0198497D01*
X0225696Y0197498D02*
X0211804Y0197498D01*
X0213462Y0196500D02*
X0224038Y0196500D01*
X0221052Y0195501D02*
X0216448Y0195501D01*
X0175628Y0205542D02*
X0175750Y0207250D01*
X0175750Y0226250D01*
X0151750Y0226250D01*
X0151750Y0207250D01*
X0151872Y0205542D01*
X0152236Y0203869D01*
X0152834Y0202265D01*
X0153655Y0200762D01*
X0154681Y0199392D01*
X0155892Y0198181D01*
X0157262Y0197155D01*
X0158765Y0196334D01*
X0160369Y0195736D01*
X0162042Y0195372D01*
X0163750Y0195250D01*
X0165458Y0195372D01*
X0167131Y0195736D01*
X0168735Y0196334D01*
X0170238Y0197155D01*
X0171608Y0198181D01*
X0172819Y0199392D01*
X0173845Y0200762D01*
X0174666Y0202265D01*
X0175264Y0203869D01*
X0175628Y0205542D01*
X0175616Y0205487D02*
X0151884Y0205487D01*
X0151805Y0206485D02*
X0175695Y0206485D01*
X0175750Y0207484D02*
X0151750Y0207484D01*
X0151750Y0208482D02*
X0175750Y0208482D01*
X0175750Y0209481D02*
X0151750Y0209481D01*
X0151750Y0210479D02*
X0175750Y0210479D01*
X0175750Y0211478D02*
X0151750Y0211478D01*
X0151750Y0212476D02*
X0175750Y0212476D01*
X0175750Y0213475D02*
X0151750Y0213475D01*
X0151750Y0214473D02*
X0175750Y0214473D01*
X0175750Y0215472D02*
X0151750Y0215472D01*
X0151750Y0216470D02*
X0175750Y0216470D01*
X0175750Y0217469D02*
X0151750Y0217469D01*
X0151750Y0218467D02*
X0175750Y0218467D01*
X0175750Y0219466D02*
X0151750Y0219466D01*
X0151750Y0220464D02*
X0175750Y0220464D01*
X0175750Y0221463D02*
X0151750Y0221463D01*
X0151750Y0222461D02*
X0175750Y0222461D01*
X0175750Y0223460D02*
X0151750Y0223460D01*
X0151750Y0224458D02*
X0175750Y0224458D01*
X0175750Y0225457D02*
X0151750Y0225457D01*
X0120750Y0225457D02*
X0096750Y0225457D01*
X0096750Y0226250D02*
X0096750Y0207250D01*
X0096872Y0205542D01*
X0097236Y0203869D01*
X0097834Y0202265D01*
X0098655Y0200762D01*
X0099681Y0199392D01*
X0100892Y0198181D01*
X0102262Y0197155D01*
X0103765Y0196334D01*
X0105369Y0195736D01*
X0107042Y0195372D01*
X0108750Y0195250D01*
X0110458Y0195372D01*
X0112131Y0195736D01*
X0113735Y0196334D01*
X0115238Y0197155D01*
X0116608Y0198181D01*
X0117819Y0199392D01*
X0118845Y0200762D01*
X0119666Y0202265D01*
X0120264Y0203869D01*
X0120628Y0205542D01*
X0120750Y0207250D01*
X0120750Y0226250D01*
X0096750Y0226250D01*
X0096750Y0224458D02*
X0120750Y0224458D01*
X0120750Y0223460D02*
X0096750Y0223460D01*
X0096750Y0222461D02*
X0120750Y0222461D01*
X0120750Y0221463D02*
X0096750Y0221463D01*
X0096750Y0220464D02*
X0120750Y0220464D01*
X0120750Y0219466D02*
X0096750Y0219466D01*
X0096750Y0218467D02*
X0120750Y0218467D01*
X0120750Y0217469D02*
X0096750Y0217469D01*
X0096750Y0216470D02*
X0120750Y0216470D01*
X0120750Y0215472D02*
X0096750Y0215472D01*
X0096750Y0214473D02*
X0120750Y0214473D01*
X0120750Y0213475D02*
X0096750Y0213475D01*
X0096750Y0212476D02*
X0120750Y0212476D01*
X0120750Y0211478D02*
X0096750Y0211478D01*
X0096750Y0210479D02*
X0120750Y0210479D01*
X0120750Y0209481D02*
X0096750Y0209481D01*
X0096750Y0208482D02*
X0120750Y0208482D01*
X0120750Y0207484D02*
X0096750Y0207484D01*
X0096805Y0206485D02*
X0120695Y0206485D01*
X0120616Y0205487D02*
X0096884Y0205487D01*
X0097101Y0204488D02*
X0120399Y0204488D01*
X0120122Y0203489D02*
X0097378Y0203489D01*
X0097750Y0202491D02*
X0119750Y0202491D01*
X0119244Y0201492D02*
X0098256Y0201492D01*
X0098856Y0200494D02*
X0118644Y0200494D01*
X0117897Y0199495D02*
X0099603Y0199495D01*
X0100576Y0198497D02*
X0116924Y0198497D01*
X0115696Y0197498D02*
X0101804Y0197498D01*
X0103462Y0196500D02*
X0114038Y0196500D01*
X0111052Y0195501D02*
X0106448Y0195501D01*
X0152101Y0204488D02*
X0175399Y0204488D01*
X0175122Y0203489D02*
X0152378Y0203489D01*
X0152750Y0202491D02*
X0174750Y0202491D01*
X0174244Y0201492D02*
X0153256Y0201492D01*
X0153856Y0200494D02*
X0173644Y0200494D01*
X0172897Y0199495D02*
X0154603Y0199495D01*
X0155576Y0198497D02*
X0171924Y0198497D01*
X0170696Y0197498D02*
X0156804Y0197498D01*
X0158462Y0196500D02*
X0169038Y0196500D01*
X0166052Y0195501D02*
X0161448Y0195501D01*
X0151750Y0158750D02*
X0151750Y0139750D01*
X0151872Y0138042D01*
X0152236Y0136369D01*
X0152834Y0134765D01*
X0153655Y0133262D01*
X0154681Y0131892D01*
X0155892Y0130681D01*
X0157262Y0129655D01*
X0158765Y0128834D01*
X0160369Y0128236D01*
X0162042Y0127872D01*
X0163750Y0127750D01*
X0165458Y0127872D01*
X0167131Y0128236D01*
X0168735Y0128834D01*
X0170238Y0129655D01*
X0171608Y0130681D01*
X0172819Y0131892D01*
X0173845Y0133262D01*
X0174666Y0134765D01*
X0175264Y0136369D01*
X0175628Y0138042D01*
X0175750Y0139750D01*
X0175750Y0158750D01*
X0151750Y0158750D01*
X0151750Y0158556D02*
X0175750Y0158556D01*
X0175750Y0157558D02*
X0151750Y0157558D01*
X0151750Y0156559D02*
X0175750Y0156559D01*
X0175750Y0155561D02*
X0151750Y0155561D01*
X0151750Y0154562D02*
X0175750Y0154562D01*
X0175750Y0153564D02*
X0151750Y0153564D01*
X0151750Y0152565D02*
X0175750Y0152565D01*
X0175750Y0151567D02*
X0151750Y0151567D01*
X0151750Y0150568D02*
X0175750Y0150568D01*
X0175750Y0149570D02*
X0151750Y0149570D01*
X0151750Y0148571D02*
X0175750Y0148571D01*
X0175750Y0147573D02*
X0151750Y0147573D01*
X0151750Y0146574D02*
X0175750Y0146574D01*
X0175750Y0145576D02*
X0151750Y0145576D01*
X0151750Y0144577D02*
X0175750Y0144577D01*
X0175750Y0143579D02*
X0151750Y0143579D01*
X0151750Y0142580D02*
X0175750Y0142580D01*
X0175750Y0141582D02*
X0151750Y0141582D01*
X0151750Y0140583D02*
X0175750Y0140583D01*
X0175738Y0139585D02*
X0151762Y0139585D01*
X0151833Y0138586D02*
X0175667Y0138586D01*
X0175529Y0137588D02*
X0151971Y0137588D01*
X0152188Y0136589D02*
X0175312Y0136589D01*
X0174974Y0135591D02*
X0152526Y0135591D01*
X0152929Y0134592D02*
X0174571Y0134592D01*
X0174026Y0133594D02*
X0153474Y0133594D01*
X0154154Y0132595D02*
X0173346Y0132595D01*
X0172524Y0131597D02*
X0154976Y0131597D01*
X0156002Y0130598D02*
X0171498Y0130598D01*
X0170136Y0129600D02*
X0157364Y0129600D01*
X0159390Y0128601D02*
X0168110Y0128601D01*
X0207188Y0136589D02*
X0230312Y0136589D01*
X0230264Y0136369D02*
X0230628Y0138042D01*
X0230750Y0139750D01*
X0230750Y0158750D01*
X0206750Y0158750D01*
X0206750Y0139750D01*
X0206872Y0138042D01*
X0207236Y0136369D01*
X0207834Y0134765D01*
X0208655Y0133262D01*
X0209681Y0131892D01*
X0210892Y0130681D01*
X0212262Y0129655D01*
X0213765Y0128834D01*
X0215369Y0128236D01*
X0217042Y0127872D01*
X0218750Y0127750D01*
X0220458Y0127872D01*
X0222131Y0128236D01*
X0223735Y0128834D01*
X0225238Y0129655D01*
X0226608Y0130681D01*
X0227819Y0131892D01*
X0228845Y0133262D01*
X0229666Y0134765D01*
X0230264Y0136369D01*
X0229974Y0135591D02*
X0207526Y0135591D01*
X0207929Y0134592D02*
X0229571Y0134592D01*
X0229026Y0133594D02*
X0208474Y0133594D01*
X0209154Y0132595D02*
X0228346Y0132595D01*
X0227524Y0131597D02*
X0209976Y0131597D01*
X0211002Y0130598D02*
X0226498Y0130598D01*
X0225136Y0129600D02*
X0212364Y0129600D01*
X0214390Y0128601D02*
X0223110Y0128601D01*
X0230529Y0137588D02*
X0206971Y0137588D01*
X0206833Y0138586D02*
X0230667Y0138586D01*
X0230738Y0139585D02*
X0206762Y0139585D01*
X0206750Y0140583D02*
X0230750Y0140583D01*
X0230750Y0141582D02*
X0206750Y0141582D01*
X0206750Y0142580D02*
X0230750Y0142580D01*
X0230750Y0143579D02*
X0206750Y0143579D01*
X0206750Y0144577D02*
X0230750Y0144577D01*
X0230750Y0145576D02*
X0206750Y0145576D01*
X0206750Y0146574D02*
X0230750Y0146574D01*
X0230750Y0147573D02*
X0206750Y0147573D01*
X0206750Y0148571D02*
X0230750Y0148571D01*
X0230750Y0149570D02*
X0206750Y0149570D01*
X0206750Y0150568D02*
X0230750Y0150568D01*
X0230750Y0151567D02*
X0206750Y0151567D01*
X0206750Y0152565D02*
X0230750Y0152565D01*
X0230750Y0153564D02*
X0206750Y0153564D01*
X0206750Y0154562D02*
X0230750Y0154562D01*
X0230750Y0155561D02*
X0206750Y0155561D01*
X0206750Y0156559D02*
X0230750Y0156559D01*
X0230750Y0157558D02*
X0206750Y0157558D01*
X0206750Y0158556D02*
X0230750Y0158556D01*
X0261750Y0158556D02*
X0285750Y0158556D01*
X0285750Y0158750D02*
X0261750Y0158750D01*
X0261750Y0139750D01*
X0261872Y0138042D01*
X0262236Y0136369D01*
X0262834Y0134765D01*
X0263655Y0133262D01*
X0264681Y0131892D01*
X0265892Y0130681D01*
X0267262Y0129655D01*
X0268765Y0128834D01*
X0270369Y0128236D01*
X0272042Y0127872D01*
X0273750Y0127750D01*
X0275458Y0127872D01*
X0277131Y0128236D01*
X0278735Y0128834D01*
X0280238Y0129655D01*
X0281608Y0130681D01*
X0282819Y0131892D01*
X0283845Y0133262D01*
X0284666Y0134765D01*
X0285264Y0136369D01*
X0285628Y0138042D01*
X0285750Y0139750D01*
X0285750Y0158750D01*
X0285750Y0157558D02*
X0261750Y0157558D01*
X0261750Y0156559D02*
X0285750Y0156559D01*
X0285750Y0155561D02*
X0261750Y0155561D01*
X0261750Y0154562D02*
X0285750Y0154562D01*
X0285750Y0153564D02*
X0261750Y0153564D01*
X0261750Y0152565D02*
X0285750Y0152565D01*
X0285750Y0151567D02*
X0261750Y0151567D01*
X0261750Y0150568D02*
X0285750Y0150568D01*
X0285750Y0149570D02*
X0261750Y0149570D01*
X0261750Y0148571D02*
X0285750Y0148571D01*
X0285750Y0147573D02*
X0261750Y0147573D01*
X0261750Y0146574D02*
X0285750Y0146574D01*
X0285750Y0145576D02*
X0261750Y0145576D01*
X0261750Y0144577D02*
X0285750Y0144577D01*
X0285750Y0143579D02*
X0261750Y0143579D01*
X0261750Y0142580D02*
X0285750Y0142580D01*
X0285750Y0141582D02*
X0261750Y0141582D01*
X0261750Y0140583D02*
X0285750Y0140583D01*
X0285738Y0139585D02*
X0261762Y0139585D01*
X0261833Y0138586D02*
X0285667Y0138586D01*
X0285529Y0137588D02*
X0261971Y0137588D01*
X0262188Y0136589D02*
X0285312Y0136589D01*
X0284974Y0135591D02*
X0262526Y0135591D01*
X0262929Y0134592D02*
X0284571Y0134592D01*
X0284026Y0133594D02*
X0263474Y0133594D01*
X0264154Y0132595D02*
X0283346Y0132595D01*
X0282524Y0131597D02*
X0264976Y0131597D01*
X0266002Y0130598D02*
X0281498Y0130598D01*
X0280136Y0129600D02*
X0267364Y0129600D01*
X0269390Y0128601D02*
X0278110Y0128601D01*
X0317188Y0136589D02*
X0340312Y0136589D01*
X0340264Y0136369D02*
X0340628Y0138042D01*
X0340750Y0139750D01*
X0340750Y0158750D01*
X0316750Y0158750D01*
X0316750Y0139750D01*
X0316872Y0138042D01*
X0317236Y0136369D01*
X0317834Y0134765D01*
X0318655Y0133262D01*
X0319681Y0131892D01*
X0320892Y0130681D01*
X0322262Y0129655D01*
X0323765Y0128834D01*
X0325369Y0128236D01*
X0327042Y0127872D01*
X0328750Y0127750D01*
X0330458Y0127872D01*
X0332131Y0128236D01*
X0333735Y0128834D01*
X0335238Y0129655D01*
X0336608Y0130681D01*
X0337819Y0131892D01*
X0338845Y0133262D01*
X0339666Y0134765D01*
X0340264Y0136369D01*
X0339974Y0135591D02*
X0317526Y0135591D01*
X0317929Y0134592D02*
X0339571Y0134592D01*
X0339026Y0133594D02*
X0318474Y0133594D01*
X0319154Y0132595D02*
X0338346Y0132595D01*
X0337524Y0131597D02*
X0319976Y0131597D01*
X0321002Y0130598D02*
X0336498Y0130598D01*
X0335136Y0129600D02*
X0322364Y0129600D01*
X0324390Y0128601D02*
X0333110Y0128601D01*
X0340529Y0137588D02*
X0316971Y0137588D01*
X0316833Y0138586D02*
X0340667Y0138586D01*
X0340738Y0139585D02*
X0316762Y0139585D01*
X0316750Y0140583D02*
X0340750Y0140583D01*
X0340750Y0141582D02*
X0316750Y0141582D01*
X0316750Y0142580D02*
X0340750Y0142580D01*
X0340750Y0143579D02*
X0316750Y0143579D01*
X0316750Y0144577D02*
X0340750Y0144577D01*
X0340750Y0145576D02*
X0316750Y0145576D01*
X0316750Y0146574D02*
X0340750Y0146574D01*
X0340750Y0147573D02*
X0316750Y0147573D01*
X0316750Y0148571D02*
X0340750Y0148571D01*
X0340750Y0149570D02*
X0316750Y0149570D01*
X0316750Y0150568D02*
X0340750Y0150568D01*
X0340750Y0151567D02*
X0316750Y0151567D01*
X0316750Y0152565D02*
X0340750Y0152565D01*
X0340750Y0153564D02*
X0316750Y0153564D01*
X0316750Y0154562D02*
X0340750Y0154562D01*
X0340750Y0155561D02*
X0316750Y0155561D01*
X0316750Y0156559D02*
X0340750Y0156559D01*
X0340750Y0157558D02*
X0316750Y0157558D01*
X0316750Y0158556D02*
X0340750Y0158556D01*
X0371750Y0158556D02*
X0395750Y0158556D01*
X0395750Y0158750D02*
X0371750Y0158750D01*
X0371750Y0139750D01*
X0371872Y0138042D01*
X0372236Y0136369D01*
X0372834Y0134765D01*
X0373655Y0133262D01*
X0374681Y0131892D01*
X0375892Y0130681D01*
X0377262Y0129655D01*
X0378765Y0128834D01*
X0380369Y0128236D01*
X0382042Y0127872D01*
X0383750Y0127750D01*
X0385458Y0127872D01*
X0387131Y0128236D01*
X0388735Y0128834D01*
X0390238Y0129655D01*
X0391608Y0130681D01*
X0392819Y0131892D01*
X0393845Y0133262D01*
X0394666Y0134765D01*
X0395264Y0136369D01*
X0395628Y0138042D01*
X0395750Y0139750D01*
X0395750Y0158750D01*
X0395750Y0157558D02*
X0371750Y0157558D01*
X0371750Y0156559D02*
X0395750Y0156559D01*
X0395750Y0155561D02*
X0371750Y0155561D01*
X0371750Y0154562D02*
X0395750Y0154562D01*
X0395750Y0153564D02*
X0371750Y0153564D01*
X0371750Y0152565D02*
X0395750Y0152565D01*
X0395750Y0151567D02*
X0371750Y0151567D01*
X0371750Y0150568D02*
X0395750Y0150568D01*
X0395750Y0149570D02*
X0371750Y0149570D01*
X0371750Y0148571D02*
X0395750Y0148571D01*
X0395750Y0147573D02*
X0371750Y0147573D01*
X0371750Y0146574D02*
X0395750Y0146574D01*
X0395750Y0145576D02*
X0371750Y0145576D01*
X0371750Y0144577D02*
X0395750Y0144577D01*
X0395750Y0143579D02*
X0371750Y0143579D01*
X0371750Y0142580D02*
X0395750Y0142580D01*
X0395750Y0141582D02*
X0371750Y0141582D01*
X0371750Y0140583D02*
X0395750Y0140583D01*
X0395738Y0139585D02*
X0371762Y0139585D01*
X0371833Y0138586D02*
X0395667Y0138586D01*
X0395529Y0137588D02*
X0371971Y0137588D01*
X0372188Y0136589D02*
X0395312Y0136589D01*
X0394974Y0135591D02*
X0372526Y0135591D01*
X0372929Y0134592D02*
X0394571Y0134592D01*
X0394026Y0133594D02*
X0373474Y0133594D01*
X0374154Y0132595D02*
X0393346Y0132595D01*
X0392524Y0131597D02*
X0374976Y0131597D01*
X0376002Y0130598D02*
X0391498Y0130598D01*
X0390136Y0129600D02*
X0377364Y0129600D01*
X0379390Y0128601D02*
X0388110Y0128601D01*
X0385458Y0087128D02*
X0383750Y0087250D01*
X0382042Y0087128D01*
X0380369Y0086764D01*
X0378765Y0086166D01*
X0377262Y0085345D01*
X0375892Y0084319D01*
X0374681Y0083108D01*
X0373655Y0081738D01*
X0372834Y0080235D01*
X0372236Y0078631D01*
X0371872Y0076958D01*
X0371750Y0075250D01*
X0371750Y0056250D01*
X0395750Y0056250D01*
X0395750Y0075250D01*
X0395628Y0076958D01*
X0395264Y0078631D01*
X0394666Y0080235D01*
X0393845Y0081738D01*
X0392819Y0083108D01*
X0391608Y0084319D01*
X0390238Y0085345D01*
X0388735Y0086166D01*
X0387131Y0086764D01*
X0385458Y0087128D01*
X0387400Y0086664D02*
X0380100Y0086664D01*
X0377849Y0085665D02*
X0389651Y0085665D01*
X0391144Y0084667D02*
X0376356Y0084667D01*
X0375241Y0083668D02*
X0392259Y0083668D01*
X0393147Y0082670D02*
X0374353Y0082670D01*
X0373619Y0081671D02*
X0393881Y0081671D01*
X0394427Y0080673D02*
X0373073Y0080673D01*
X0372625Y0079674D02*
X0394875Y0079674D01*
X0395247Y0078676D02*
X0372253Y0078676D01*
X0372029Y0077677D02*
X0395471Y0077677D01*
X0395648Y0076679D02*
X0371852Y0076679D01*
X0371781Y0075680D02*
X0395719Y0075680D01*
X0395750Y0074682D02*
X0371750Y0074682D01*
X0371750Y0073683D02*
X0395750Y0073683D01*
X0395750Y0072684D02*
X0371750Y0072684D01*
X0371750Y0071686D02*
X0395750Y0071686D01*
X0395750Y0070687D02*
X0371750Y0070687D01*
X0371750Y0069689D02*
X0395750Y0069689D01*
X0395750Y0068690D02*
X0371750Y0068690D01*
X0371750Y0067692D02*
X0395750Y0067692D01*
X0395750Y0066693D02*
X0371750Y0066693D01*
X0371750Y0065695D02*
X0395750Y0065695D01*
X0395750Y0064696D02*
X0371750Y0064696D01*
X0371750Y0063698D02*
X0395750Y0063698D01*
X0395750Y0062699D02*
X0371750Y0062699D01*
X0371750Y0061701D02*
X0395750Y0061701D01*
X0395750Y0060702D02*
X0371750Y0060702D01*
X0371750Y0059704D02*
X0395750Y0059704D01*
X0395750Y0058705D02*
X0371750Y0058705D01*
X0371750Y0057707D02*
X0395750Y0057707D01*
X0395750Y0056708D02*
X0371750Y0056708D01*
X0340750Y0056708D02*
X0316750Y0056708D01*
X0316750Y0056250D02*
X0340750Y0056250D01*
X0340750Y0075250D01*
X0340628Y0076958D01*
X0340264Y0078631D01*
X0339666Y0080235D01*
X0338845Y0081738D01*
X0337819Y0083108D01*
X0336608Y0084319D01*
X0335238Y0085345D01*
X0333735Y0086166D01*
X0332131Y0086764D01*
X0330458Y0087128D01*
X0328750Y0087250D01*
X0327042Y0087128D01*
X0325369Y0086764D01*
X0323765Y0086166D01*
X0322262Y0085345D01*
X0320892Y0084319D01*
X0319681Y0083108D01*
X0318655Y0081738D01*
X0317834Y0080235D01*
X0317236Y0078631D01*
X0316872Y0076958D01*
X0316750Y0075250D01*
X0316750Y0056250D01*
X0316750Y0057707D02*
X0340750Y0057707D01*
X0340750Y0058705D02*
X0316750Y0058705D01*
X0316750Y0059704D02*
X0340750Y0059704D01*
X0340750Y0060702D02*
X0316750Y0060702D01*
X0316750Y0061701D02*
X0340750Y0061701D01*
X0340750Y0062699D02*
X0316750Y0062699D01*
X0316750Y0063698D02*
X0340750Y0063698D01*
X0340750Y0064696D02*
X0316750Y0064696D01*
X0316750Y0065695D02*
X0340750Y0065695D01*
X0340750Y0066693D02*
X0316750Y0066693D01*
X0316750Y0067692D02*
X0340750Y0067692D01*
X0340750Y0068690D02*
X0316750Y0068690D01*
X0316750Y0069689D02*
X0340750Y0069689D01*
X0340750Y0070687D02*
X0316750Y0070687D01*
X0316750Y0071686D02*
X0340750Y0071686D01*
X0340750Y0072684D02*
X0316750Y0072684D01*
X0316750Y0073683D02*
X0340750Y0073683D01*
X0340750Y0074682D02*
X0316750Y0074682D01*
X0316781Y0075680D02*
X0340719Y0075680D01*
X0340648Y0076679D02*
X0316852Y0076679D01*
X0317029Y0077677D02*
X0340471Y0077677D01*
X0340247Y0078676D02*
X0317253Y0078676D01*
X0317625Y0079674D02*
X0339875Y0079674D01*
X0339427Y0080673D02*
X0318073Y0080673D01*
X0318619Y0081671D02*
X0338881Y0081671D01*
X0338147Y0082670D02*
X0319353Y0082670D01*
X0320241Y0083668D02*
X0337259Y0083668D01*
X0336144Y0084667D02*
X0321356Y0084667D01*
X0322849Y0085665D02*
X0334651Y0085665D01*
X0332400Y0086664D02*
X0325100Y0086664D01*
X0285471Y0077677D02*
X0262029Y0077677D01*
X0261872Y0076958D02*
X0262236Y0078631D01*
X0262834Y0080235D01*
X0263655Y0081738D01*
X0264681Y0083108D01*
X0265892Y0084319D01*
X0267262Y0085345D01*
X0268765Y0086166D01*
X0270369Y0086764D01*
X0272042Y0087128D01*
X0273750Y0087250D01*
X0275458Y0087128D01*
X0277131Y0086764D01*
X0278735Y0086166D01*
X0280238Y0085345D01*
X0281608Y0084319D01*
X0282819Y0083108D01*
X0283845Y0081738D01*
X0284666Y0080235D01*
X0285264Y0078631D01*
X0285628Y0076958D01*
X0285750Y0075250D01*
X0285750Y0056250D01*
X0261750Y0056250D01*
X0261750Y0075250D01*
X0261872Y0076958D01*
X0261852Y0076679D02*
X0285648Y0076679D01*
X0285719Y0075680D02*
X0261781Y0075680D01*
X0261750Y0074682D02*
X0285750Y0074682D01*
X0285750Y0073683D02*
X0261750Y0073683D01*
X0261750Y0072684D02*
X0285750Y0072684D01*
X0285750Y0071686D02*
X0261750Y0071686D01*
X0261750Y0070687D02*
X0285750Y0070687D01*
X0285750Y0069689D02*
X0261750Y0069689D01*
X0261750Y0068690D02*
X0285750Y0068690D01*
X0285750Y0067692D02*
X0261750Y0067692D01*
X0261750Y0066693D02*
X0285750Y0066693D01*
X0285750Y0065695D02*
X0261750Y0065695D01*
X0261750Y0064696D02*
X0285750Y0064696D01*
X0285750Y0063698D02*
X0261750Y0063698D01*
X0261750Y0062699D02*
X0285750Y0062699D01*
X0285750Y0061701D02*
X0261750Y0061701D01*
X0261750Y0060702D02*
X0285750Y0060702D01*
X0285750Y0059704D02*
X0261750Y0059704D01*
X0261750Y0058705D02*
X0285750Y0058705D01*
X0285750Y0057707D02*
X0261750Y0057707D01*
X0261750Y0056708D02*
X0285750Y0056708D01*
X0285247Y0078676D02*
X0262253Y0078676D01*
X0262625Y0079674D02*
X0284875Y0079674D01*
X0284427Y0080673D02*
X0263073Y0080673D01*
X0263619Y0081671D02*
X0283881Y0081671D01*
X0283147Y0082670D02*
X0264353Y0082670D01*
X0265241Y0083668D02*
X0282259Y0083668D01*
X0281144Y0084667D02*
X0266356Y0084667D01*
X0267849Y0085665D02*
X0279651Y0085665D01*
X0277400Y0086664D02*
X0270100Y0086664D01*
X0230471Y0077677D02*
X0207029Y0077677D01*
X0206872Y0076958D02*
X0207236Y0078631D01*
X0207834Y0080235D01*
X0208655Y0081738D01*
X0209681Y0083108D01*
X0210892Y0084319D01*
X0212262Y0085345D01*
X0213765Y0086166D01*
X0215369Y0086764D01*
X0217042Y0087128D01*
X0218750Y0087250D01*
X0220458Y0087128D01*
X0222131Y0086764D01*
X0223735Y0086166D01*
X0225238Y0085345D01*
X0226608Y0084319D01*
X0227819Y0083108D01*
X0228845Y0081738D01*
X0229666Y0080235D01*
X0230264Y0078631D01*
X0230628Y0076958D01*
X0230750Y0075250D01*
X0230750Y0056250D01*
X0206750Y0056250D01*
X0206750Y0075250D01*
X0206872Y0076958D01*
X0206852Y0076679D02*
X0230648Y0076679D01*
X0230719Y0075680D02*
X0206781Y0075680D01*
X0206750Y0074682D02*
X0230750Y0074682D01*
X0230750Y0073683D02*
X0206750Y0073683D01*
X0206750Y0072684D02*
X0230750Y0072684D01*
X0230750Y0071686D02*
X0206750Y0071686D01*
X0206750Y0070687D02*
X0230750Y0070687D01*
X0230750Y0069689D02*
X0206750Y0069689D01*
X0206750Y0068690D02*
X0230750Y0068690D01*
X0230750Y0067692D02*
X0206750Y0067692D01*
X0206750Y0066693D02*
X0230750Y0066693D01*
X0230750Y0065695D02*
X0206750Y0065695D01*
X0206750Y0064696D02*
X0230750Y0064696D01*
X0230750Y0063698D02*
X0206750Y0063698D01*
X0206750Y0062699D02*
X0230750Y0062699D01*
X0230750Y0061701D02*
X0206750Y0061701D01*
X0206750Y0060702D02*
X0230750Y0060702D01*
X0230750Y0059704D02*
X0206750Y0059704D01*
X0206750Y0058705D02*
X0230750Y0058705D01*
X0230750Y0057707D02*
X0206750Y0057707D01*
X0206750Y0056708D02*
X0230750Y0056708D01*
X0230247Y0078676D02*
X0207253Y0078676D01*
X0207625Y0079674D02*
X0229875Y0079674D01*
X0229427Y0080673D02*
X0208073Y0080673D01*
X0208619Y0081671D02*
X0228881Y0081671D01*
X0228147Y0082670D02*
X0209353Y0082670D01*
X0210241Y0083668D02*
X0227259Y0083668D01*
X0226144Y0084667D02*
X0211356Y0084667D01*
X0212849Y0085665D02*
X0224651Y0085665D01*
X0222400Y0086664D02*
X0215100Y0086664D01*
X0175628Y0076958D02*
X0175750Y0075250D01*
X0175750Y0056250D01*
X0151750Y0056250D01*
X0151750Y0075250D01*
X0151872Y0076958D01*
X0152236Y0078631D01*
X0152834Y0080235D01*
X0153655Y0081738D01*
X0154681Y0083108D01*
X0155892Y0084319D01*
X0157262Y0085345D01*
X0158765Y0086166D01*
X0160369Y0086764D01*
X0162042Y0087128D01*
X0163750Y0087250D01*
X0165458Y0087128D01*
X0167131Y0086764D01*
X0168735Y0086166D01*
X0170238Y0085345D01*
X0171608Y0084319D01*
X0172819Y0083108D01*
X0173845Y0081738D01*
X0174666Y0080235D01*
X0175264Y0078631D01*
X0175628Y0076958D01*
X0175648Y0076679D02*
X0151852Y0076679D01*
X0151781Y0075680D02*
X0175719Y0075680D01*
X0175750Y0074682D02*
X0151750Y0074682D01*
X0151750Y0073683D02*
X0175750Y0073683D01*
X0175750Y0072684D02*
X0151750Y0072684D01*
X0151750Y0071686D02*
X0175750Y0071686D01*
X0175750Y0070687D02*
X0151750Y0070687D01*
X0151750Y0069689D02*
X0175750Y0069689D01*
X0175750Y0068690D02*
X0151750Y0068690D01*
X0151750Y0067692D02*
X0175750Y0067692D01*
X0175750Y0066693D02*
X0151750Y0066693D01*
X0151750Y0065695D02*
X0175750Y0065695D01*
X0175750Y0064696D02*
X0151750Y0064696D01*
X0151750Y0063698D02*
X0175750Y0063698D01*
X0175750Y0062699D02*
X0151750Y0062699D01*
X0151750Y0061701D02*
X0175750Y0061701D01*
X0175750Y0060702D02*
X0151750Y0060702D01*
X0151750Y0059704D02*
X0175750Y0059704D01*
X0175750Y0058705D02*
X0151750Y0058705D01*
X0151750Y0057707D02*
X0175750Y0057707D01*
X0175750Y0056708D02*
X0151750Y0056708D01*
X0120750Y0056708D02*
X0096750Y0056708D01*
X0096750Y0056250D02*
X0120750Y0056250D01*
X0120750Y0075250D01*
X0120628Y0076958D01*
X0120264Y0078631D01*
X0119666Y0080235D01*
X0118845Y0081738D01*
X0117819Y0083108D01*
X0116608Y0084319D01*
X0115238Y0085345D01*
X0113735Y0086166D01*
X0112131Y0086764D01*
X0110458Y0087128D01*
X0108750Y0087250D01*
X0107042Y0087128D01*
X0105369Y0086764D01*
X0103765Y0086166D01*
X0102262Y0085345D01*
X0100892Y0084319D01*
X0099681Y0083108D01*
X0098655Y0081738D01*
X0097834Y0080235D01*
X0097236Y0078631D01*
X0096872Y0076958D01*
X0096750Y0075250D01*
X0096750Y0056250D01*
X0096750Y0057707D02*
X0120750Y0057707D01*
X0120750Y0058705D02*
X0096750Y0058705D01*
X0096750Y0059704D02*
X0120750Y0059704D01*
X0120750Y0060702D02*
X0096750Y0060702D01*
X0096750Y0061701D02*
X0120750Y0061701D01*
X0120750Y0062699D02*
X0096750Y0062699D01*
X0096750Y0063698D02*
X0120750Y0063698D01*
X0120750Y0064696D02*
X0096750Y0064696D01*
X0096750Y0065695D02*
X0120750Y0065695D01*
X0120750Y0066693D02*
X0096750Y0066693D01*
X0096750Y0067692D02*
X0120750Y0067692D01*
X0120750Y0068690D02*
X0096750Y0068690D01*
X0096750Y0069689D02*
X0120750Y0069689D01*
X0120750Y0070687D02*
X0096750Y0070687D01*
X0096750Y0071686D02*
X0120750Y0071686D01*
X0120750Y0072684D02*
X0096750Y0072684D01*
X0096750Y0073683D02*
X0120750Y0073683D01*
X0120750Y0074682D02*
X0096750Y0074682D01*
X0096781Y0075680D02*
X0120719Y0075680D01*
X0120648Y0076679D02*
X0096852Y0076679D01*
X0097029Y0077677D02*
X0120471Y0077677D01*
X0120247Y0078676D02*
X0097253Y0078676D01*
X0097625Y0079674D02*
X0119875Y0079674D01*
X0119427Y0080673D02*
X0098073Y0080673D01*
X0098619Y0081671D02*
X0118881Y0081671D01*
X0118147Y0082670D02*
X0099353Y0082670D01*
X0100241Y0083668D02*
X0117259Y0083668D01*
X0116144Y0084667D02*
X0101356Y0084667D01*
X0102849Y0085665D02*
X0114651Y0085665D01*
X0112400Y0086664D02*
X0105100Y0086664D01*
X0152029Y0077677D02*
X0175471Y0077677D01*
X0175247Y0078676D02*
X0152253Y0078676D01*
X0152625Y0079674D02*
X0174875Y0079674D01*
X0174427Y0080673D02*
X0153073Y0080673D01*
X0153619Y0081671D02*
X0173881Y0081671D01*
X0173147Y0082670D02*
X0154353Y0082670D01*
X0155241Y0083668D02*
X0172259Y0083668D01*
X0171144Y0084667D02*
X0156356Y0084667D01*
X0157849Y0085665D02*
X0169651Y0085665D01*
X0167400Y0086664D02*
X0160100Y0086664D01*
X0115238Y0129655D02*
X0113735Y0128834D01*
X0112131Y0128236D01*
X0110458Y0127872D01*
X0108750Y0127750D01*
X0107042Y0127872D01*
X0105369Y0128236D01*
X0103765Y0128834D01*
X0102262Y0129655D01*
X0100892Y0130681D01*
X0099681Y0131892D01*
X0098655Y0133262D01*
X0097834Y0134765D01*
X0097236Y0136369D01*
X0096872Y0138042D01*
X0096750Y0139750D01*
X0096750Y0158750D01*
X0120750Y0158750D01*
X0120750Y0139750D01*
X0120628Y0138042D01*
X0120264Y0136369D01*
X0119666Y0134765D01*
X0118845Y0133262D01*
X0117819Y0131892D01*
X0116608Y0130681D01*
X0115238Y0129655D01*
X0115136Y0129600D02*
X0102364Y0129600D01*
X0101002Y0130598D02*
X0116498Y0130598D01*
X0117524Y0131597D02*
X0099976Y0131597D01*
X0099154Y0132595D02*
X0118346Y0132595D01*
X0119026Y0133594D02*
X0098474Y0133594D01*
X0097929Y0134592D02*
X0119571Y0134592D01*
X0119974Y0135591D02*
X0097526Y0135591D01*
X0097188Y0136589D02*
X0120312Y0136589D01*
X0120529Y0137588D02*
X0096971Y0137588D01*
X0096833Y0138586D02*
X0120667Y0138586D01*
X0120738Y0139585D02*
X0096762Y0139585D01*
X0096750Y0140583D02*
X0120750Y0140583D01*
X0120750Y0141582D02*
X0096750Y0141582D01*
X0096750Y0142580D02*
X0120750Y0142580D01*
X0120750Y0143579D02*
X0096750Y0143579D01*
X0096750Y0144577D02*
X0120750Y0144577D01*
X0120750Y0145576D02*
X0096750Y0145576D01*
X0096750Y0146574D02*
X0120750Y0146574D01*
X0120750Y0147573D02*
X0096750Y0147573D01*
X0096750Y0148571D02*
X0120750Y0148571D01*
X0120750Y0149570D02*
X0096750Y0149570D01*
X0096750Y0150568D02*
X0120750Y0150568D01*
X0120750Y0151567D02*
X0096750Y0151567D01*
X0096750Y0152565D02*
X0120750Y0152565D01*
X0120750Y0153564D02*
X0096750Y0153564D01*
X0096750Y0154562D02*
X0120750Y0154562D01*
X0120750Y0155561D02*
X0096750Y0155561D01*
X0096750Y0156559D02*
X0120750Y0156559D01*
X0120750Y0157558D02*
X0096750Y0157558D01*
X0096750Y0158556D02*
X0120750Y0158556D01*
X0113110Y0128601D02*
X0104390Y0128601D01*
X0262750Y0202491D02*
X0284750Y0202491D01*
X0284244Y0201492D02*
X0263256Y0201492D01*
X0263856Y0200494D02*
X0283644Y0200494D01*
X0282897Y0199495D02*
X0264603Y0199495D01*
X0265576Y0198497D02*
X0281924Y0198497D01*
X0280696Y0197498D02*
X0266804Y0197498D01*
X0268462Y0196500D02*
X0279038Y0196500D01*
X0276052Y0195501D02*
X0271448Y0195501D01*
X0060628Y0230542D02*
X0060750Y0232250D01*
X0060750Y0251250D01*
X0036750Y0251250D01*
X0036750Y0232250D01*
X0036872Y0230542D01*
X0037236Y0228869D01*
X0037834Y0227265D01*
X0038655Y0225762D01*
X0039681Y0224392D01*
X0040892Y0223181D01*
X0042262Y0222155D01*
X0043765Y0221334D01*
X0045369Y0220736D01*
X0047042Y0220372D01*
X0048750Y0220250D01*
X0050458Y0220372D01*
X0052131Y0220736D01*
X0053735Y0221334D01*
X0055238Y0222155D01*
X0056608Y0223181D01*
X0057819Y0224392D01*
X0058845Y0225762D01*
X0059666Y0227265D01*
X0060264Y0228869D01*
X0060628Y0230542D01*
X0060608Y0230449D02*
X0036892Y0230449D01*
X0036807Y0231448D02*
X0060693Y0231448D01*
X0060750Y0232446D02*
X0036750Y0232446D01*
X0036750Y0233445D02*
X0060750Y0233445D01*
X0060750Y0234443D02*
X0036750Y0234443D01*
X0036750Y0235442D02*
X0060750Y0235442D01*
X0060750Y0236440D02*
X0036750Y0236440D01*
X0036750Y0237439D02*
X0060750Y0237439D01*
X0060750Y0238437D02*
X0036750Y0238437D01*
X0036750Y0239436D02*
X0060750Y0239436D01*
X0060750Y0240434D02*
X0036750Y0240434D01*
X0036750Y0241433D02*
X0060750Y0241433D01*
X0060750Y0242431D02*
X0036750Y0242431D01*
X0036750Y0243430D02*
X0060750Y0243430D01*
X0060750Y0244428D02*
X0036750Y0244428D01*
X0036750Y0245427D02*
X0060750Y0245427D01*
X0060750Y0246425D02*
X0036750Y0246425D01*
X0036750Y0247424D02*
X0060750Y0247424D01*
X0060750Y0248422D02*
X0036750Y0248422D01*
X0036750Y0249421D02*
X0060750Y0249421D01*
X0060750Y0250420D02*
X0036750Y0250420D01*
X0037110Y0229451D02*
X0060390Y0229451D01*
X0060108Y0228452D02*
X0037392Y0228452D01*
X0037764Y0227454D02*
X0059736Y0227454D01*
X0059223Y0226455D02*
X0038277Y0226455D01*
X0038884Y0225457D02*
X0058616Y0225457D01*
X0057869Y0224458D02*
X0039631Y0224458D01*
X0040613Y0223460D02*
X0056887Y0223460D01*
X0055647Y0222461D02*
X0041853Y0222461D01*
X0043530Y0221463D02*
X0053970Y0221463D01*
X0050881Y0220464D02*
X0046619Y0220464D01*
D13*
X0088750Y0038750D03*
X0438750Y0191250D03*
D14*
X0443750Y0183750D02*
X0443750Y0183750D01*
X0443750Y0051162D01*
X0431138Y0038550D01*
X0163150Y0038550D01*
X0163750Y0038750D02*
X0163750Y0075250D01*
X0108750Y0075250D02*
X0108750Y0043750D01*
X0113750Y0038750D01*
X0163750Y0038750D01*
X0218750Y0038750D01*
X0218750Y0075250D01*
X0273750Y0056250D02*
X0273750Y0038750D01*
X0328750Y0038750D01*
X0328750Y0075250D01*
X0383750Y0053250D02*
X0383750Y0038750D01*
X0328750Y0038750D01*
X0273750Y0038750D02*
X0218750Y0038750D01*
X0218750Y0139750D02*
X0218750Y0178750D01*
X0273750Y0178750D01*
X0273750Y0139750D01*
X0328750Y0139750D02*
X0328750Y0178750D01*
X0378750Y0178750D01*
X0383750Y0173750D01*
X0383750Y0161750D01*
X0355750Y0183750D02*
X0353250Y0186250D01*
X0353250Y0193250D01*
X0353250Y0207250D01*
X0381250Y0207250D01*
X0353250Y0207250D02*
X0326250Y0207250D01*
X0353250Y0186250D02*
X0355750Y0183750D01*
X0443750Y0183750D01*
X0443750Y0232250D01*
X0443750Y0183750D02*
X0443750Y0183750D01*
X0355750Y0183750D01*
X0328750Y0178750D02*
X0273750Y0178750D01*
X0218750Y0178750D02*
X0163750Y0178750D01*
X0163750Y0139750D01*
X0108750Y0139750D02*
X0108750Y0173750D01*
X0113750Y0178750D01*
X0131250Y0178750D01*
X0131250Y0193250D01*
X0131250Y0207250D01*
X0163750Y0207250D01*
X0131250Y0207250D02*
X0108750Y0207250D01*
X0131250Y0193250D02*
X0131250Y0193250D01*
X0131250Y0178750D02*
X0155750Y0178750D01*
X0156250Y0178750D01*
X0158750Y0178750D01*
X0163750Y0178750D01*
D15*
X0383750Y0161750D03*
D16*
X0383750Y0053250D03*
M02*
