%
M48
M72
T01C0.0150
T02C0.0200
T03C0.1575
%
T01
X10675Y4975
X11075Y4975
X16175Y4975
X16575Y4975
X21675Y4975
X22075Y4975
X27175Y4975
X27575Y4975
X32675Y4975
X33075Y4975
X38175Y4975
X38575Y4975
X38375Y5325
X38175Y16525
X38575Y16525
X35525Y19025
X35125Y19025
X33075Y16525
X32675Y16525
X27575Y16525
X27175Y16525
X24775Y18975
X24375Y18975
X22075Y16525
X21675Y16525
X16625Y16525
X16125Y16525
X13325Y18975
X12925Y18975
X11075Y16475
X10675Y16475
X7475Y20925
X7475Y21375
X12925Y23275
X13325Y23275
X24425Y23275
X24825Y23275
X35125Y23275
X35525Y23275
X41725Y21675
X41725Y21275
X8275Y11125
X8275Y10725
T02
X38375Y16175
T03
X38375Y13975
X32875Y13975
X27375Y13975
X21875Y13975
X16375Y13975
X10875Y13975
X10875Y7525
X16375Y7525
X21875Y7525
X27375Y7525
X32875Y7525
X38375Y7525
X38125Y20725
X32625Y20725
X27375Y20725
X21875Y20725
X16375Y20725
X10875Y20725
X4875Y23225
X44375Y23225
M30
