G75*
%MOIN*%
%OFA0B0*%
%FSLAX25Y25*%
%IPPOS*%
%LPD*%
%AMOC8*
5,1,8,0,0,1.08239X$1,22.5*
%
%ADD10C,0.01500*%
%ADD11C,0.01100*%
D10*
X0027750Y0001750D02*
X0027750Y0305750D01*
X0001750Y0254750D02*
X0515750Y0254750D01*
X0464750Y0305750D02*
X0464750Y0001750D01*
X0515750Y0027750D02*
X0001750Y0027750D01*
D11*
X0011852Y0311800D02*
X0013163Y0315733D01*
X0010541Y0315733D02*
X0011852Y0311800D01*
X0015834Y0314094D02*
X0019768Y0314094D01*
X0023136Y0314094D02*
X0024774Y0313439D01*
X0024775Y0313439D02*
X0024827Y0313416D01*
X0024878Y0313389D01*
X0024927Y0313359D01*
X0024974Y0313326D01*
X0025019Y0313290D01*
X0025061Y0313250D01*
X0025100Y0313208D01*
X0025136Y0313164D01*
X0025169Y0313117D01*
X0025199Y0313067D01*
X0025226Y0313016D01*
X0025249Y0312964D01*
X0025268Y0312910D01*
X0025284Y0312854D01*
X0025296Y0312798D01*
X0025304Y0312741D01*
X0025308Y0312684D01*
X0025309Y0312626D01*
X0025305Y0312569D01*
X0025298Y0312512D01*
X0025286Y0312455D01*
X0025271Y0312400D01*
X0025253Y0312345D01*
X0025230Y0312292D01*
X0025204Y0312241D01*
X0025175Y0312192D01*
X0025142Y0312144D01*
X0025106Y0312099D01*
X0025068Y0312057D01*
X0025026Y0312017D01*
X0024982Y0311980D01*
X0024935Y0311946D01*
X0024887Y0311915D01*
X0024836Y0311888D01*
X0024784Y0311864D01*
X0024730Y0311844D01*
X0024675Y0311828D01*
X0024619Y0311815D01*
X0024562Y0311806D01*
X0024504Y0311801D01*
X0024447Y0311800D01*
X0024938Y0315405D02*
X0024831Y0315451D01*
X0024722Y0315494D01*
X0024612Y0315534D01*
X0024500Y0315570D01*
X0024388Y0315602D01*
X0024274Y0315631D01*
X0024160Y0315657D01*
X0024045Y0315678D01*
X0023930Y0315697D01*
X0023813Y0315711D01*
X0023697Y0315722D01*
X0023580Y0315729D01*
X0023463Y0315733D01*
X0023463Y0315734D02*
X0023406Y0315733D01*
X0023348Y0315728D01*
X0023291Y0315719D01*
X0023235Y0315706D01*
X0023180Y0315690D01*
X0023126Y0315670D01*
X0023074Y0315646D01*
X0023023Y0315619D01*
X0022975Y0315588D01*
X0022928Y0315554D01*
X0022884Y0315517D01*
X0022842Y0315477D01*
X0022804Y0315435D01*
X0022768Y0315390D01*
X0022735Y0315342D01*
X0022706Y0315293D01*
X0022680Y0315242D01*
X0022657Y0315189D01*
X0022639Y0315134D01*
X0022624Y0315079D01*
X0022612Y0315022D01*
X0022605Y0314965D01*
X0022601Y0314908D01*
X0022602Y0314850D01*
X0022606Y0314793D01*
X0022614Y0314736D01*
X0022626Y0314680D01*
X0022642Y0314624D01*
X0022661Y0314570D01*
X0022684Y0314518D01*
X0022711Y0314467D01*
X0022741Y0314417D01*
X0022774Y0314370D01*
X0022810Y0314326D01*
X0022849Y0314284D01*
X0022891Y0314244D01*
X0022936Y0314208D01*
X0022983Y0314175D01*
X0023032Y0314145D01*
X0023083Y0314118D01*
X0023135Y0314095D01*
X0022644Y0312128D02*
X0022778Y0312082D01*
X0022913Y0312039D01*
X0023049Y0312000D01*
X0023186Y0311964D01*
X0023323Y0311932D01*
X0023462Y0311903D01*
X0023601Y0311877D01*
X0023741Y0311856D01*
X0023882Y0311837D01*
X0024022Y0311823D01*
X0024164Y0311812D01*
X0024305Y0311804D01*
X0024447Y0311801D01*
X0027988Y0312783D02*
X0027988Y0314750D01*
X0027990Y0314812D01*
X0027996Y0314873D01*
X0028005Y0314934D01*
X0028019Y0314994D01*
X0028036Y0315054D01*
X0028057Y0315112D01*
X0028082Y0315169D01*
X0028110Y0315224D01*
X0028141Y0315277D01*
X0028176Y0315328D01*
X0028214Y0315377D01*
X0028254Y0315423D01*
X0028298Y0315467D01*
X0028344Y0315507D01*
X0028393Y0315545D01*
X0028444Y0315580D01*
X0028497Y0315611D01*
X0028552Y0315639D01*
X0028609Y0315664D01*
X0028667Y0315685D01*
X0028727Y0315702D01*
X0028787Y0315716D01*
X0028848Y0315725D01*
X0028909Y0315731D01*
X0028971Y0315733D01*
X0030282Y0315733D01*
X0032695Y0314422D02*
X0032695Y0313111D01*
X0032696Y0313111D02*
X0032698Y0313040D01*
X0032704Y0312969D01*
X0032713Y0312899D01*
X0032727Y0312829D01*
X0032744Y0312760D01*
X0032765Y0312692D01*
X0032789Y0312626D01*
X0032817Y0312561D01*
X0032849Y0312497D01*
X0032884Y0312435D01*
X0032922Y0312375D01*
X0032963Y0312318D01*
X0033008Y0312262D01*
X0033055Y0312209D01*
X0033105Y0312159D01*
X0033158Y0312112D01*
X0033214Y0312067D01*
X0033271Y0312026D01*
X0033331Y0311988D01*
X0033393Y0311953D01*
X0033457Y0311921D01*
X0033522Y0311893D01*
X0033588Y0311869D01*
X0033656Y0311848D01*
X0033725Y0311831D01*
X0033795Y0311817D01*
X0033865Y0311808D01*
X0033936Y0311802D01*
X0034007Y0311800D01*
X0034078Y0311802D01*
X0034149Y0311808D01*
X0034219Y0311817D01*
X0034289Y0311831D01*
X0034358Y0311848D01*
X0034426Y0311869D01*
X0034492Y0311893D01*
X0034557Y0311921D01*
X0034621Y0311953D01*
X0034683Y0311988D01*
X0034743Y0312026D01*
X0034800Y0312067D01*
X0034856Y0312112D01*
X0034909Y0312159D01*
X0034959Y0312209D01*
X0035006Y0312262D01*
X0035051Y0312318D01*
X0035092Y0312375D01*
X0035130Y0312435D01*
X0035165Y0312497D01*
X0035197Y0312561D01*
X0035225Y0312626D01*
X0035249Y0312692D01*
X0035270Y0312760D01*
X0035287Y0312829D01*
X0035301Y0312899D01*
X0035310Y0312969D01*
X0035316Y0313040D01*
X0035318Y0313111D01*
X0035318Y0314422D01*
X0035316Y0314493D01*
X0035310Y0314564D01*
X0035301Y0314634D01*
X0035287Y0314704D01*
X0035270Y0314773D01*
X0035249Y0314841D01*
X0035225Y0314907D01*
X0035197Y0314972D01*
X0035165Y0315036D01*
X0035130Y0315098D01*
X0035092Y0315158D01*
X0035051Y0315215D01*
X0035006Y0315271D01*
X0034959Y0315324D01*
X0034909Y0315374D01*
X0034856Y0315421D01*
X0034800Y0315466D01*
X0034743Y0315507D01*
X0034683Y0315545D01*
X0034621Y0315580D01*
X0034557Y0315612D01*
X0034492Y0315640D01*
X0034426Y0315664D01*
X0034358Y0315685D01*
X0034289Y0315702D01*
X0034219Y0315716D01*
X0034149Y0315725D01*
X0034078Y0315731D01*
X0034007Y0315733D01*
X0033936Y0315731D01*
X0033865Y0315725D01*
X0033795Y0315716D01*
X0033725Y0315702D01*
X0033656Y0315685D01*
X0033588Y0315664D01*
X0033522Y0315640D01*
X0033457Y0315612D01*
X0033393Y0315580D01*
X0033331Y0315545D01*
X0033271Y0315507D01*
X0033214Y0315466D01*
X0033158Y0315421D01*
X0033105Y0315374D01*
X0033055Y0315324D01*
X0033008Y0315271D01*
X0032963Y0315215D01*
X0032922Y0315158D01*
X0032884Y0315098D01*
X0032849Y0315036D01*
X0032817Y0314972D01*
X0032789Y0314907D01*
X0032765Y0314841D01*
X0032744Y0314773D01*
X0032727Y0314704D01*
X0032713Y0314634D01*
X0032704Y0314564D01*
X0032698Y0314493D01*
X0032696Y0314422D01*
X0030282Y0311800D02*
X0028971Y0311800D01*
X0028909Y0311802D01*
X0028848Y0311808D01*
X0028787Y0311817D01*
X0028727Y0311831D01*
X0028667Y0311848D01*
X0028609Y0311869D01*
X0028552Y0311894D01*
X0028497Y0311922D01*
X0028444Y0311953D01*
X0028393Y0311988D01*
X0028344Y0312026D01*
X0028298Y0312066D01*
X0028254Y0312110D01*
X0028214Y0312156D01*
X0028176Y0312205D01*
X0028141Y0312256D01*
X0028110Y0312309D01*
X0028082Y0312364D01*
X0028057Y0312421D01*
X0028036Y0312479D01*
X0028019Y0312539D01*
X0028005Y0312599D01*
X0027996Y0312660D01*
X0027990Y0312721D01*
X0027988Y0312783D01*
X0038284Y0311800D02*
X0038284Y0315733D01*
X0040251Y0315733D01*
X0040251Y0315078D01*
X0042337Y0314422D02*
X0042337Y0312783D01*
X0042339Y0312721D01*
X0042345Y0312660D01*
X0042354Y0312599D01*
X0042368Y0312539D01*
X0042385Y0312479D01*
X0042406Y0312421D01*
X0042431Y0312364D01*
X0042459Y0312309D01*
X0042490Y0312256D01*
X0042525Y0312205D01*
X0042563Y0312156D01*
X0042603Y0312110D01*
X0042647Y0312066D01*
X0042693Y0312026D01*
X0042742Y0311988D01*
X0042793Y0311953D01*
X0042846Y0311922D01*
X0042901Y0311894D01*
X0042958Y0311869D01*
X0043016Y0311848D01*
X0043076Y0311831D01*
X0043136Y0311817D01*
X0043197Y0311808D01*
X0043258Y0311802D01*
X0043320Y0311800D01*
X0044959Y0311800D01*
X0044959Y0313767D02*
X0042337Y0313767D01*
X0042337Y0314422D02*
X0042339Y0314493D01*
X0042345Y0314564D01*
X0042354Y0314634D01*
X0042368Y0314704D01*
X0042385Y0314773D01*
X0042406Y0314841D01*
X0042430Y0314907D01*
X0042458Y0314972D01*
X0042490Y0315036D01*
X0042525Y0315098D01*
X0042563Y0315158D01*
X0042604Y0315215D01*
X0042649Y0315271D01*
X0042696Y0315324D01*
X0042746Y0315374D01*
X0042799Y0315421D01*
X0042855Y0315466D01*
X0042912Y0315507D01*
X0042972Y0315545D01*
X0043034Y0315580D01*
X0043098Y0315612D01*
X0043163Y0315640D01*
X0043229Y0315664D01*
X0043297Y0315685D01*
X0043366Y0315702D01*
X0043436Y0315716D01*
X0043506Y0315725D01*
X0043577Y0315731D01*
X0043648Y0315733D01*
X0043719Y0315731D01*
X0043790Y0315725D01*
X0043860Y0315716D01*
X0043930Y0315702D01*
X0043999Y0315685D01*
X0044067Y0315664D01*
X0044133Y0315640D01*
X0044198Y0315612D01*
X0044262Y0315580D01*
X0044324Y0315545D01*
X0044384Y0315507D01*
X0044441Y0315466D01*
X0044497Y0315421D01*
X0044550Y0315374D01*
X0044600Y0315324D01*
X0044647Y0315271D01*
X0044692Y0315215D01*
X0044733Y0315158D01*
X0044771Y0315098D01*
X0044806Y0315036D01*
X0044838Y0314972D01*
X0044866Y0314907D01*
X0044890Y0314841D01*
X0044911Y0314773D01*
X0044928Y0314704D01*
X0044942Y0314634D01*
X0044951Y0314564D01*
X0044957Y0314493D01*
X0044959Y0314422D01*
X0044959Y0313767D01*
X0447541Y0315733D02*
X0448852Y0311800D01*
X0450163Y0315733D01*
X0452834Y0314094D02*
X0456768Y0314094D01*
X0460136Y0314094D02*
X0461774Y0313439D01*
X0461775Y0313439D02*
X0461827Y0313416D01*
X0461878Y0313389D01*
X0461927Y0313359D01*
X0461974Y0313326D01*
X0462019Y0313290D01*
X0462061Y0313250D01*
X0462100Y0313208D01*
X0462136Y0313164D01*
X0462169Y0313117D01*
X0462199Y0313067D01*
X0462226Y0313016D01*
X0462249Y0312964D01*
X0462268Y0312910D01*
X0462284Y0312854D01*
X0462296Y0312798D01*
X0462304Y0312741D01*
X0462308Y0312684D01*
X0462309Y0312626D01*
X0462305Y0312569D01*
X0462298Y0312512D01*
X0462286Y0312455D01*
X0462271Y0312400D01*
X0462253Y0312345D01*
X0462230Y0312292D01*
X0462204Y0312241D01*
X0462175Y0312192D01*
X0462142Y0312144D01*
X0462106Y0312099D01*
X0462068Y0312057D01*
X0462026Y0312017D01*
X0461982Y0311980D01*
X0461935Y0311946D01*
X0461887Y0311915D01*
X0461836Y0311888D01*
X0461784Y0311864D01*
X0461730Y0311844D01*
X0461675Y0311828D01*
X0461619Y0311815D01*
X0461562Y0311806D01*
X0461504Y0311801D01*
X0461447Y0311800D01*
X0461938Y0315405D02*
X0461831Y0315451D01*
X0461722Y0315494D01*
X0461612Y0315534D01*
X0461500Y0315570D01*
X0461388Y0315602D01*
X0461274Y0315631D01*
X0461160Y0315657D01*
X0461045Y0315678D01*
X0460930Y0315697D01*
X0460813Y0315711D01*
X0460697Y0315722D01*
X0460580Y0315729D01*
X0460463Y0315733D01*
X0460463Y0315734D02*
X0460406Y0315733D01*
X0460348Y0315728D01*
X0460291Y0315719D01*
X0460235Y0315706D01*
X0460180Y0315690D01*
X0460126Y0315670D01*
X0460074Y0315646D01*
X0460023Y0315619D01*
X0459975Y0315588D01*
X0459928Y0315554D01*
X0459884Y0315517D01*
X0459842Y0315477D01*
X0459804Y0315435D01*
X0459768Y0315390D01*
X0459735Y0315342D01*
X0459706Y0315293D01*
X0459680Y0315242D01*
X0459657Y0315189D01*
X0459639Y0315134D01*
X0459624Y0315079D01*
X0459612Y0315022D01*
X0459605Y0314965D01*
X0459601Y0314908D01*
X0459602Y0314850D01*
X0459606Y0314793D01*
X0459614Y0314736D01*
X0459626Y0314680D01*
X0459642Y0314624D01*
X0459661Y0314570D01*
X0459684Y0314518D01*
X0459711Y0314467D01*
X0459741Y0314417D01*
X0459774Y0314370D01*
X0459810Y0314326D01*
X0459849Y0314284D01*
X0459891Y0314244D01*
X0459936Y0314208D01*
X0459983Y0314175D01*
X0460032Y0314145D01*
X0460083Y0314118D01*
X0460135Y0314095D01*
X0459644Y0312128D02*
X0459778Y0312082D01*
X0459913Y0312039D01*
X0460049Y0312000D01*
X0460186Y0311964D01*
X0460323Y0311932D01*
X0460462Y0311903D01*
X0460601Y0311877D01*
X0460741Y0311856D01*
X0460882Y0311837D01*
X0461022Y0311823D01*
X0461164Y0311812D01*
X0461305Y0311804D01*
X0461447Y0311801D01*
X0464988Y0312783D02*
X0464988Y0314750D01*
X0464990Y0314812D01*
X0464996Y0314873D01*
X0465005Y0314934D01*
X0465019Y0314994D01*
X0465036Y0315054D01*
X0465057Y0315112D01*
X0465082Y0315169D01*
X0465110Y0315224D01*
X0465141Y0315277D01*
X0465176Y0315328D01*
X0465214Y0315377D01*
X0465254Y0315423D01*
X0465298Y0315467D01*
X0465344Y0315507D01*
X0465393Y0315545D01*
X0465444Y0315580D01*
X0465497Y0315611D01*
X0465552Y0315639D01*
X0465609Y0315664D01*
X0465667Y0315685D01*
X0465727Y0315702D01*
X0465787Y0315716D01*
X0465848Y0315725D01*
X0465909Y0315731D01*
X0465971Y0315733D01*
X0467282Y0315733D01*
X0469695Y0314422D02*
X0469695Y0313111D01*
X0469696Y0313111D02*
X0469698Y0313040D01*
X0469704Y0312969D01*
X0469713Y0312899D01*
X0469727Y0312829D01*
X0469744Y0312760D01*
X0469765Y0312692D01*
X0469789Y0312626D01*
X0469817Y0312561D01*
X0469849Y0312497D01*
X0469884Y0312435D01*
X0469922Y0312375D01*
X0469963Y0312318D01*
X0470008Y0312262D01*
X0470055Y0312209D01*
X0470105Y0312159D01*
X0470158Y0312112D01*
X0470214Y0312067D01*
X0470271Y0312026D01*
X0470331Y0311988D01*
X0470393Y0311953D01*
X0470457Y0311921D01*
X0470522Y0311893D01*
X0470588Y0311869D01*
X0470656Y0311848D01*
X0470725Y0311831D01*
X0470795Y0311817D01*
X0470865Y0311808D01*
X0470936Y0311802D01*
X0471007Y0311800D01*
X0471078Y0311802D01*
X0471149Y0311808D01*
X0471219Y0311817D01*
X0471289Y0311831D01*
X0471358Y0311848D01*
X0471426Y0311869D01*
X0471492Y0311893D01*
X0471557Y0311921D01*
X0471621Y0311953D01*
X0471683Y0311988D01*
X0471743Y0312026D01*
X0471800Y0312067D01*
X0471856Y0312112D01*
X0471909Y0312159D01*
X0471959Y0312209D01*
X0472006Y0312262D01*
X0472051Y0312318D01*
X0472092Y0312375D01*
X0472130Y0312435D01*
X0472165Y0312497D01*
X0472197Y0312561D01*
X0472225Y0312626D01*
X0472249Y0312692D01*
X0472270Y0312760D01*
X0472287Y0312829D01*
X0472301Y0312899D01*
X0472310Y0312969D01*
X0472316Y0313040D01*
X0472318Y0313111D01*
X0472318Y0314422D01*
X0472316Y0314493D01*
X0472310Y0314564D01*
X0472301Y0314634D01*
X0472287Y0314704D01*
X0472270Y0314773D01*
X0472249Y0314841D01*
X0472225Y0314907D01*
X0472197Y0314972D01*
X0472165Y0315036D01*
X0472130Y0315098D01*
X0472092Y0315158D01*
X0472051Y0315215D01*
X0472006Y0315271D01*
X0471959Y0315324D01*
X0471909Y0315374D01*
X0471856Y0315421D01*
X0471800Y0315466D01*
X0471743Y0315507D01*
X0471683Y0315545D01*
X0471621Y0315580D01*
X0471557Y0315612D01*
X0471492Y0315640D01*
X0471426Y0315664D01*
X0471358Y0315685D01*
X0471289Y0315702D01*
X0471219Y0315716D01*
X0471149Y0315725D01*
X0471078Y0315731D01*
X0471007Y0315733D01*
X0470936Y0315731D01*
X0470865Y0315725D01*
X0470795Y0315716D01*
X0470725Y0315702D01*
X0470656Y0315685D01*
X0470588Y0315664D01*
X0470522Y0315640D01*
X0470457Y0315612D01*
X0470393Y0315580D01*
X0470331Y0315545D01*
X0470271Y0315507D01*
X0470214Y0315466D01*
X0470158Y0315421D01*
X0470105Y0315374D01*
X0470055Y0315324D01*
X0470008Y0315271D01*
X0469963Y0315215D01*
X0469922Y0315158D01*
X0469884Y0315098D01*
X0469849Y0315036D01*
X0469817Y0314972D01*
X0469789Y0314907D01*
X0469765Y0314841D01*
X0469744Y0314773D01*
X0469727Y0314704D01*
X0469713Y0314634D01*
X0469704Y0314564D01*
X0469698Y0314493D01*
X0469696Y0314422D01*
X0467282Y0311800D02*
X0465971Y0311800D01*
X0465909Y0311802D01*
X0465848Y0311808D01*
X0465787Y0311817D01*
X0465727Y0311831D01*
X0465667Y0311848D01*
X0465609Y0311869D01*
X0465552Y0311894D01*
X0465497Y0311922D01*
X0465444Y0311953D01*
X0465393Y0311988D01*
X0465344Y0312026D01*
X0465298Y0312066D01*
X0465254Y0312110D01*
X0465214Y0312156D01*
X0465176Y0312205D01*
X0465141Y0312256D01*
X0465110Y0312309D01*
X0465082Y0312364D01*
X0465057Y0312421D01*
X0465036Y0312479D01*
X0465019Y0312539D01*
X0465005Y0312599D01*
X0464996Y0312660D01*
X0464990Y0312721D01*
X0464988Y0312783D01*
X0475284Y0311800D02*
X0475284Y0315733D01*
X0477251Y0315733D01*
X0477251Y0315078D01*
X0479337Y0314422D02*
X0479337Y0312783D01*
X0479339Y0312721D01*
X0479345Y0312660D01*
X0479354Y0312599D01*
X0479368Y0312539D01*
X0479385Y0312479D01*
X0479406Y0312421D01*
X0479431Y0312364D01*
X0479459Y0312309D01*
X0479490Y0312256D01*
X0479525Y0312205D01*
X0479563Y0312156D01*
X0479603Y0312110D01*
X0479647Y0312066D01*
X0479693Y0312026D01*
X0479742Y0311988D01*
X0479793Y0311953D01*
X0479846Y0311922D01*
X0479901Y0311894D01*
X0479958Y0311869D01*
X0480016Y0311848D01*
X0480076Y0311831D01*
X0480136Y0311817D01*
X0480197Y0311808D01*
X0480258Y0311802D01*
X0480320Y0311800D01*
X0481959Y0311800D01*
X0481959Y0313767D02*
X0479337Y0313767D01*
X0479337Y0314422D02*
X0479339Y0314493D01*
X0479345Y0314564D01*
X0479354Y0314634D01*
X0479368Y0314704D01*
X0479385Y0314773D01*
X0479406Y0314841D01*
X0479430Y0314907D01*
X0479458Y0314972D01*
X0479490Y0315036D01*
X0479525Y0315098D01*
X0479563Y0315158D01*
X0479604Y0315215D01*
X0479649Y0315271D01*
X0479696Y0315324D01*
X0479746Y0315374D01*
X0479799Y0315421D01*
X0479855Y0315466D01*
X0479912Y0315507D01*
X0479972Y0315545D01*
X0480034Y0315580D01*
X0480098Y0315612D01*
X0480163Y0315640D01*
X0480229Y0315664D01*
X0480297Y0315685D01*
X0480366Y0315702D01*
X0480436Y0315716D01*
X0480506Y0315725D01*
X0480577Y0315731D01*
X0480648Y0315733D01*
X0480719Y0315731D01*
X0480790Y0315725D01*
X0480860Y0315716D01*
X0480930Y0315702D01*
X0480999Y0315685D01*
X0481067Y0315664D01*
X0481133Y0315640D01*
X0481198Y0315612D01*
X0481262Y0315580D01*
X0481324Y0315545D01*
X0481384Y0315507D01*
X0481441Y0315466D01*
X0481497Y0315421D01*
X0481550Y0315374D01*
X0481600Y0315324D01*
X0481647Y0315271D01*
X0481692Y0315215D01*
X0481733Y0315158D01*
X0481771Y0315098D01*
X0481806Y0315036D01*
X0481838Y0314972D01*
X0481866Y0314907D01*
X0481890Y0314841D01*
X0481911Y0314773D01*
X0481928Y0314704D01*
X0481942Y0314634D01*
X0481951Y0314564D01*
X0481957Y0314493D01*
X0481959Y0314422D01*
X0481959Y0313767D01*
X0528541Y0255733D02*
X0529852Y0251800D01*
X0531163Y0255733D01*
X0533834Y0254094D02*
X0537768Y0254094D01*
X0541136Y0254094D02*
X0542774Y0253439D01*
X0542775Y0253439D02*
X0542827Y0253416D01*
X0542878Y0253389D01*
X0542927Y0253359D01*
X0542974Y0253326D01*
X0543019Y0253290D01*
X0543061Y0253250D01*
X0543100Y0253208D01*
X0543136Y0253164D01*
X0543169Y0253117D01*
X0543199Y0253067D01*
X0543226Y0253016D01*
X0543249Y0252964D01*
X0543268Y0252910D01*
X0543284Y0252854D01*
X0543296Y0252798D01*
X0543304Y0252741D01*
X0543308Y0252684D01*
X0543309Y0252626D01*
X0543305Y0252569D01*
X0543298Y0252512D01*
X0543286Y0252455D01*
X0543271Y0252400D01*
X0543253Y0252345D01*
X0543230Y0252292D01*
X0543204Y0252241D01*
X0543175Y0252192D01*
X0543142Y0252144D01*
X0543106Y0252099D01*
X0543068Y0252057D01*
X0543026Y0252017D01*
X0542982Y0251980D01*
X0542935Y0251946D01*
X0542887Y0251915D01*
X0542836Y0251888D01*
X0542784Y0251864D01*
X0542730Y0251844D01*
X0542675Y0251828D01*
X0542619Y0251815D01*
X0542562Y0251806D01*
X0542504Y0251801D01*
X0542447Y0251800D01*
X0542938Y0255405D02*
X0542831Y0255451D01*
X0542722Y0255494D01*
X0542612Y0255534D01*
X0542500Y0255570D01*
X0542388Y0255602D01*
X0542274Y0255631D01*
X0542160Y0255657D01*
X0542045Y0255678D01*
X0541930Y0255697D01*
X0541813Y0255711D01*
X0541697Y0255722D01*
X0541580Y0255729D01*
X0541463Y0255733D01*
X0541463Y0255734D02*
X0541406Y0255733D01*
X0541348Y0255728D01*
X0541291Y0255719D01*
X0541235Y0255706D01*
X0541180Y0255690D01*
X0541126Y0255670D01*
X0541074Y0255646D01*
X0541023Y0255619D01*
X0540975Y0255588D01*
X0540928Y0255554D01*
X0540884Y0255517D01*
X0540842Y0255477D01*
X0540804Y0255435D01*
X0540768Y0255390D01*
X0540735Y0255342D01*
X0540706Y0255293D01*
X0540680Y0255242D01*
X0540657Y0255189D01*
X0540639Y0255134D01*
X0540624Y0255079D01*
X0540612Y0255022D01*
X0540605Y0254965D01*
X0540601Y0254908D01*
X0540602Y0254850D01*
X0540606Y0254793D01*
X0540614Y0254736D01*
X0540626Y0254680D01*
X0540642Y0254624D01*
X0540661Y0254570D01*
X0540684Y0254518D01*
X0540711Y0254467D01*
X0540741Y0254417D01*
X0540774Y0254370D01*
X0540810Y0254326D01*
X0540849Y0254284D01*
X0540891Y0254244D01*
X0540936Y0254208D01*
X0540983Y0254175D01*
X0541032Y0254145D01*
X0541083Y0254118D01*
X0541135Y0254095D01*
X0540644Y0252128D02*
X0540778Y0252082D01*
X0540913Y0252039D01*
X0541049Y0252000D01*
X0541186Y0251964D01*
X0541323Y0251932D01*
X0541462Y0251903D01*
X0541601Y0251877D01*
X0541741Y0251856D01*
X0541882Y0251837D01*
X0542022Y0251823D01*
X0542164Y0251812D01*
X0542305Y0251804D01*
X0542447Y0251801D01*
X0545988Y0252783D02*
X0545988Y0254750D01*
X0545990Y0254812D01*
X0545996Y0254873D01*
X0546005Y0254934D01*
X0546019Y0254994D01*
X0546036Y0255054D01*
X0546057Y0255112D01*
X0546082Y0255169D01*
X0546110Y0255224D01*
X0546141Y0255277D01*
X0546176Y0255328D01*
X0546214Y0255377D01*
X0546254Y0255423D01*
X0546298Y0255467D01*
X0546344Y0255507D01*
X0546393Y0255545D01*
X0546444Y0255580D01*
X0546497Y0255611D01*
X0546552Y0255639D01*
X0546609Y0255664D01*
X0546667Y0255685D01*
X0546727Y0255702D01*
X0546787Y0255716D01*
X0546848Y0255725D01*
X0546909Y0255731D01*
X0546971Y0255733D01*
X0548282Y0255733D01*
X0550695Y0254422D02*
X0550695Y0253111D01*
X0550696Y0253111D02*
X0550698Y0253040D01*
X0550704Y0252969D01*
X0550713Y0252899D01*
X0550727Y0252829D01*
X0550744Y0252760D01*
X0550765Y0252692D01*
X0550789Y0252626D01*
X0550817Y0252561D01*
X0550849Y0252497D01*
X0550884Y0252435D01*
X0550922Y0252375D01*
X0550963Y0252318D01*
X0551008Y0252262D01*
X0551055Y0252209D01*
X0551105Y0252159D01*
X0551158Y0252112D01*
X0551214Y0252067D01*
X0551271Y0252026D01*
X0551331Y0251988D01*
X0551393Y0251953D01*
X0551457Y0251921D01*
X0551522Y0251893D01*
X0551588Y0251869D01*
X0551656Y0251848D01*
X0551725Y0251831D01*
X0551795Y0251817D01*
X0551865Y0251808D01*
X0551936Y0251802D01*
X0552007Y0251800D01*
X0552078Y0251802D01*
X0552149Y0251808D01*
X0552219Y0251817D01*
X0552289Y0251831D01*
X0552358Y0251848D01*
X0552426Y0251869D01*
X0552492Y0251893D01*
X0552557Y0251921D01*
X0552621Y0251953D01*
X0552683Y0251988D01*
X0552743Y0252026D01*
X0552800Y0252067D01*
X0552856Y0252112D01*
X0552909Y0252159D01*
X0552959Y0252209D01*
X0553006Y0252262D01*
X0553051Y0252318D01*
X0553092Y0252375D01*
X0553130Y0252435D01*
X0553165Y0252497D01*
X0553197Y0252561D01*
X0553225Y0252626D01*
X0553249Y0252692D01*
X0553270Y0252760D01*
X0553287Y0252829D01*
X0553301Y0252899D01*
X0553310Y0252969D01*
X0553316Y0253040D01*
X0553318Y0253111D01*
X0553318Y0254422D01*
X0553316Y0254493D01*
X0553310Y0254564D01*
X0553301Y0254634D01*
X0553287Y0254704D01*
X0553270Y0254773D01*
X0553249Y0254841D01*
X0553225Y0254907D01*
X0553197Y0254972D01*
X0553165Y0255036D01*
X0553130Y0255098D01*
X0553092Y0255158D01*
X0553051Y0255215D01*
X0553006Y0255271D01*
X0552959Y0255324D01*
X0552909Y0255374D01*
X0552856Y0255421D01*
X0552800Y0255466D01*
X0552743Y0255507D01*
X0552683Y0255545D01*
X0552621Y0255580D01*
X0552557Y0255612D01*
X0552492Y0255640D01*
X0552426Y0255664D01*
X0552358Y0255685D01*
X0552289Y0255702D01*
X0552219Y0255716D01*
X0552149Y0255725D01*
X0552078Y0255731D01*
X0552007Y0255733D01*
X0551936Y0255731D01*
X0551865Y0255725D01*
X0551795Y0255716D01*
X0551725Y0255702D01*
X0551656Y0255685D01*
X0551588Y0255664D01*
X0551522Y0255640D01*
X0551457Y0255612D01*
X0551393Y0255580D01*
X0551331Y0255545D01*
X0551271Y0255507D01*
X0551214Y0255466D01*
X0551158Y0255421D01*
X0551105Y0255374D01*
X0551055Y0255324D01*
X0551008Y0255271D01*
X0550963Y0255215D01*
X0550922Y0255158D01*
X0550884Y0255098D01*
X0550849Y0255036D01*
X0550817Y0254972D01*
X0550789Y0254907D01*
X0550765Y0254841D01*
X0550744Y0254773D01*
X0550727Y0254704D01*
X0550713Y0254634D01*
X0550704Y0254564D01*
X0550698Y0254493D01*
X0550696Y0254422D01*
X0548282Y0251800D02*
X0546971Y0251800D01*
X0546909Y0251802D01*
X0546848Y0251808D01*
X0546787Y0251817D01*
X0546727Y0251831D01*
X0546667Y0251848D01*
X0546609Y0251869D01*
X0546552Y0251894D01*
X0546497Y0251922D01*
X0546444Y0251953D01*
X0546393Y0251988D01*
X0546344Y0252026D01*
X0546298Y0252066D01*
X0546254Y0252110D01*
X0546214Y0252156D01*
X0546176Y0252205D01*
X0546141Y0252256D01*
X0546110Y0252309D01*
X0546082Y0252364D01*
X0546057Y0252421D01*
X0546036Y0252479D01*
X0546019Y0252539D01*
X0546005Y0252599D01*
X0545996Y0252660D01*
X0545990Y0252721D01*
X0545988Y0252783D01*
X0556284Y0251800D02*
X0556284Y0255733D01*
X0558251Y0255733D01*
X0558251Y0255078D01*
X0560337Y0254422D02*
X0560337Y0252783D01*
X0560339Y0252721D01*
X0560345Y0252660D01*
X0560354Y0252599D01*
X0560368Y0252539D01*
X0560385Y0252479D01*
X0560406Y0252421D01*
X0560431Y0252364D01*
X0560459Y0252309D01*
X0560490Y0252256D01*
X0560525Y0252205D01*
X0560563Y0252156D01*
X0560603Y0252110D01*
X0560647Y0252066D01*
X0560693Y0252026D01*
X0560742Y0251988D01*
X0560793Y0251953D01*
X0560846Y0251922D01*
X0560901Y0251894D01*
X0560958Y0251869D01*
X0561016Y0251848D01*
X0561076Y0251831D01*
X0561136Y0251817D01*
X0561197Y0251808D01*
X0561258Y0251802D01*
X0561320Y0251800D01*
X0562959Y0251800D01*
X0562959Y0253767D02*
X0560337Y0253767D01*
X0560337Y0254422D02*
X0560339Y0254493D01*
X0560345Y0254564D01*
X0560354Y0254634D01*
X0560368Y0254704D01*
X0560385Y0254773D01*
X0560406Y0254841D01*
X0560430Y0254907D01*
X0560458Y0254972D01*
X0560490Y0255036D01*
X0560525Y0255098D01*
X0560563Y0255158D01*
X0560604Y0255215D01*
X0560649Y0255271D01*
X0560696Y0255324D01*
X0560746Y0255374D01*
X0560799Y0255421D01*
X0560855Y0255466D01*
X0560912Y0255507D01*
X0560972Y0255545D01*
X0561034Y0255580D01*
X0561098Y0255612D01*
X0561163Y0255640D01*
X0561229Y0255664D01*
X0561297Y0255685D01*
X0561366Y0255702D01*
X0561436Y0255716D01*
X0561506Y0255725D01*
X0561577Y0255731D01*
X0561648Y0255733D01*
X0561719Y0255731D01*
X0561790Y0255725D01*
X0561860Y0255716D01*
X0561930Y0255702D01*
X0561999Y0255685D01*
X0562067Y0255664D01*
X0562133Y0255640D01*
X0562198Y0255612D01*
X0562262Y0255580D01*
X0562324Y0255545D01*
X0562384Y0255507D01*
X0562441Y0255466D01*
X0562497Y0255421D01*
X0562550Y0255374D01*
X0562600Y0255324D01*
X0562647Y0255271D01*
X0562692Y0255215D01*
X0562733Y0255158D01*
X0562771Y0255098D01*
X0562806Y0255036D01*
X0562838Y0254972D01*
X0562866Y0254907D01*
X0562890Y0254841D01*
X0562911Y0254773D01*
X0562928Y0254704D01*
X0562942Y0254634D01*
X0562951Y0254564D01*
X0562957Y0254493D01*
X0562959Y0254422D01*
X0562959Y0253767D01*
X0540644Y0025128D02*
X0540778Y0025082D01*
X0540913Y0025039D01*
X0541049Y0025000D01*
X0541186Y0024964D01*
X0541323Y0024932D01*
X0541462Y0024903D01*
X0541601Y0024877D01*
X0541741Y0024856D01*
X0541882Y0024837D01*
X0542022Y0024823D01*
X0542164Y0024812D01*
X0542305Y0024804D01*
X0542447Y0024801D01*
X0542447Y0024800D02*
X0542504Y0024801D01*
X0542562Y0024806D01*
X0542619Y0024815D01*
X0542675Y0024828D01*
X0542730Y0024844D01*
X0542784Y0024864D01*
X0542836Y0024888D01*
X0542887Y0024915D01*
X0542935Y0024946D01*
X0542982Y0024980D01*
X0543026Y0025017D01*
X0543068Y0025057D01*
X0543106Y0025099D01*
X0543142Y0025144D01*
X0543175Y0025192D01*
X0543204Y0025241D01*
X0543230Y0025292D01*
X0543253Y0025345D01*
X0543271Y0025400D01*
X0543286Y0025455D01*
X0543298Y0025512D01*
X0543305Y0025569D01*
X0543309Y0025626D01*
X0543308Y0025684D01*
X0543304Y0025741D01*
X0543296Y0025798D01*
X0543284Y0025854D01*
X0543268Y0025910D01*
X0543249Y0025964D01*
X0543226Y0026016D01*
X0543199Y0026067D01*
X0543169Y0026117D01*
X0543136Y0026164D01*
X0543100Y0026208D01*
X0543061Y0026250D01*
X0543019Y0026290D01*
X0542974Y0026326D01*
X0542927Y0026359D01*
X0542878Y0026389D01*
X0542827Y0026416D01*
X0542775Y0026439D01*
X0542774Y0026439D02*
X0541136Y0027094D01*
X0541135Y0027095D02*
X0541083Y0027118D01*
X0541032Y0027145D01*
X0540983Y0027175D01*
X0540936Y0027208D01*
X0540891Y0027244D01*
X0540849Y0027284D01*
X0540810Y0027326D01*
X0540774Y0027370D01*
X0540741Y0027417D01*
X0540711Y0027467D01*
X0540684Y0027518D01*
X0540661Y0027570D01*
X0540642Y0027624D01*
X0540626Y0027680D01*
X0540614Y0027736D01*
X0540606Y0027793D01*
X0540602Y0027850D01*
X0540601Y0027908D01*
X0540605Y0027965D01*
X0540612Y0028022D01*
X0540624Y0028079D01*
X0540639Y0028134D01*
X0540657Y0028189D01*
X0540680Y0028242D01*
X0540706Y0028293D01*
X0540735Y0028342D01*
X0540768Y0028390D01*
X0540804Y0028435D01*
X0540842Y0028477D01*
X0540884Y0028517D01*
X0540928Y0028554D01*
X0540975Y0028588D01*
X0541023Y0028619D01*
X0541074Y0028646D01*
X0541126Y0028670D01*
X0541180Y0028690D01*
X0541235Y0028706D01*
X0541291Y0028719D01*
X0541348Y0028728D01*
X0541406Y0028733D01*
X0541463Y0028734D01*
X0541463Y0028733D02*
X0541580Y0028729D01*
X0541697Y0028722D01*
X0541813Y0028711D01*
X0541930Y0028697D01*
X0542045Y0028678D01*
X0542160Y0028657D01*
X0542274Y0028631D01*
X0542388Y0028602D01*
X0542500Y0028570D01*
X0542612Y0028534D01*
X0542722Y0028494D01*
X0542831Y0028451D01*
X0542938Y0028405D01*
X0545988Y0027750D02*
X0545988Y0025783D01*
X0545990Y0025721D01*
X0545996Y0025660D01*
X0546005Y0025599D01*
X0546019Y0025539D01*
X0546036Y0025479D01*
X0546057Y0025421D01*
X0546082Y0025364D01*
X0546110Y0025309D01*
X0546141Y0025256D01*
X0546176Y0025205D01*
X0546214Y0025156D01*
X0546254Y0025110D01*
X0546298Y0025066D01*
X0546344Y0025026D01*
X0546393Y0024988D01*
X0546444Y0024953D01*
X0546497Y0024922D01*
X0546552Y0024894D01*
X0546609Y0024869D01*
X0546667Y0024848D01*
X0546727Y0024831D01*
X0546787Y0024817D01*
X0546848Y0024808D01*
X0546909Y0024802D01*
X0546971Y0024800D01*
X0548282Y0024800D01*
X0550695Y0026111D02*
X0550695Y0027422D01*
X0550696Y0027422D02*
X0550698Y0027493D01*
X0550704Y0027564D01*
X0550713Y0027634D01*
X0550727Y0027704D01*
X0550744Y0027773D01*
X0550765Y0027841D01*
X0550789Y0027907D01*
X0550817Y0027972D01*
X0550849Y0028036D01*
X0550884Y0028098D01*
X0550922Y0028158D01*
X0550963Y0028215D01*
X0551008Y0028271D01*
X0551055Y0028324D01*
X0551105Y0028374D01*
X0551158Y0028421D01*
X0551214Y0028466D01*
X0551271Y0028507D01*
X0551331Y0028545D01*
X0551393Y0028580D01*
X0551457Y0028612D01*
X0551522Y0028640D01*
X0551588Y0028664D01*
X0551656Y0028685D01*
X0551725Y0028702D01*
X0551795Y0028716D01*
X0551865Y0028725D01*
X0551936Y0028731D01*
X0552007Y0028733D01*
X0552078Y0028731D01*
X0552149Y0028725D01*
X0552219Y0028716D01*
X0552289Y0028702D01*
X0552358Y0028685D01*
X0552426Y0028664D01*
X0552492Y0028640D01*
X0552557Y0028612D01*
X0552621Y0028580D01*
X0552683Y0028545D01*
X0552743Y0028507D01*
X0552800Y0028466D01*
X0552856Y0028421D01*
X0552909Y0028374D01*
X0552959Y0028324D01*
X0553006Y0028271D01*
X0553051Y0028215D01*
X0553092Y0028158D01*
X0553130Y0028098D01*
X0553165Y0028036D01*
X0553197Y0027972D01*
X0553225Y0027907D01*
X0553249Y0027841D01*
X0553270Y0027773D01*
X0553287Y0027704D01*
X0553301Y0027634D01*
X0553310Y0027564D01*
X0553316Y0027493D01*
X0553318Y0027422D01*
X0553318Y0026111D01*
X0553316Y0026040D01*
X0553310Y0025969D01*
X0553301Y0025899D01*
X0553287Y0025829D01*
X0553270Y0025760D01*
X0553249Y0025692D01*
X0553225Y0025626D01*
X0553197Y0025561D01*
X0553165Y0025497D01*
X0553130Y0025435D01*
X0553092Y0025375D01*
X0553051Y0025318D01*
X0553006Y0025262D01*
X0552959Y0025209D01*
X0552909Y0025159D01*
X0552856Y0025112D01*
X0552800Y0025067D01*
X0552743Y0025026D01*
X0552683Y0024988D01*
X0552621Y0024953D01*
X0552557Y0024921D01*
X0552492Y0024893D01*
X0552426Y0024869D01*
X0552358Y0024848D01*
X0552289Y0024831D01*
X0552219Y0024817D01*
X0552149Y0024808D01*
X0552078Y0024802D01*
X0552007Y0024800D01*
X0551936Y0024802D01*
X0551865Y0024808D01*
X0551795Y0024817D01*
X0551725Y0024831D01*
X0551656Y0024848D01*
X0551588Y0024869D01*
X0551522Y0024893D01*
X0551457Y0024921D01*
X0551393Y0024953D01*
X0551331Y0024988D01*
X0551271Y0025026D01*
X0551214Y0025067D01*
X0551158Y0025112D01*
X0551105Y0025159D01*
X0551055Y0025209D01*
X0551008Y0025262D01*
X0550963Y0025318D01*
X0550922Y0025375D01*
X0550884Y0025435D01*
X0550849Y0025497D01*
X0550817Y0025561D01*
X0550789Y0025626D01*
X0550765Y0025692D01*
X0550744Y0025760D01*
X0550727Y0025829D01*
X0550713Y0025899D01*
X0550704Y0025969D01*
X0550698Y0026040D01*
X0550696Y0026111D01*
X0548282Y0028733D02*
X0546971Y0028733D01*
X0546909Y0028731D01*
X0546848Y0028725D01*
X0546787Y0028716D01*
X0546727Y0028702D01*
X0546667Y0028685D01*
X0546609Y0028664D01*
X0546552Y0028639D01*
X0546497Y0028611D01*
X0546444Y0028580D01*
X0546393Y0028545D01*
X0546344Y0028507D01*
X0546298Y0028467D01*
X0546254Y0028423D01*
X0546214Y0028377D01*
X0546176Y0028328D01*
X0546141Y0028277D01*
X0546110Y0028224D01*
X0546082Y0028169D01*
X0546057Y0028112D01*
X0546036Y0028054D01*
X0546019Y0027994D01*
X0546005Y0027934D01*
X0545996Y0027873D01*
X0545990Y0027812D01*
X0545988Y0027750D01*
X0537768Y0027094D02*
X0533834Y0027094D01*
X0531163Y0028733D02*
X0529852Y0024800D01*
X0528541Y0028733D01*
X0556284Y0028733D02*
X0556284Y0024800D01*
X0558251Y0028078D02*
X0558251Y0028733D01*
X0556284Y0028733D01*
X0560337Y0027422D02*
X0560337Y0025783D01*
X0560339Y0025721D01*
X0560345Y0025660D01*
X0560354Y0025599D01*
X0560368Y0025539D01*
X0560385Y0025479D01*
X0560406Y0025421D01*
X0560431Y0025364D01*
X0560459Y0025309D01*
X0560490Y0025256D01*
X0560525Y0025205D01*
X0560563Y0025156D01*
X0560603Y0025110D01*
X0560647Y0025066D01*
X0560693Y0025026D01*
X0560742Y0024988D01*
X0560793Y0024953D01*
X0560846Y0024922D01*
X0560901Y0024894D01*
X0560958Y0024869D01*
X0561016Y0024848D01*
X0561076Y0024831D01*
X0561136Y0024817D01*
X0561197Y0024808D01*
X0561258Y0024802D01*
X0561320Y0024800D01*
X0562959Y0024800D01*
X0562959Y0026767D02*
X0560337Y0026767D01*
X0560337Y0027422D02*
X0560339Y0027493D01*
X0560345Y0027564D01*
X0560354Y0027634D01*
X0560368Y0027704D01*
X0560385Y0027773D01*
X0560406Y0027841D01*
X0560430Y0027907D01*
X0560458Y0027972D01*
X0560490Y0028036D01*
X0560525Y0028098D01*
X0560563Y0028158D01*
X0560604Y0028215D01*
X0560649Y0028271D01*
X0560696Y0028324D01*
X0560746Y0028374D01*
X0560799Y0028421D01*
X0560855Y0028466D01*
X0560912Y0028507D01*
X0560972Y0028545D01*
X0561034Y0028580D01*
X0561098Y0028612D01*
X0561163Y0028640D01*
X0561229Y0028664D01*
X0561297Y0028685D01*
X0561366Y0028702D01*
X0561436Y0028716D01*
X0561506Y0028725D01*
X0561577Y0028731D01*
X0561648Y0028733D01*
X0561719Y0028731D01*
X0561790Y0028725D01*
X0561860Y0028716D01*
X0561930Y0028702D01*
X0561999Y0028685D01*
X0562067Y0028664D01*
X0562133Y0028640D01*
X0562198Y0028612D01*
X0562262Y0028580D01*
X0562324Y0028545D01*
X0562384Y0028507D01*
X0562441Y0028466D01*
X0562497Y0028421D01*
X0562550Y0028374D01*
X0562600Y0028324D01*
X0562647Y0028271D01*
X0562692Y0028215D01*
X0562733Y0028158D01*
X0562771Y0028098D01*
X0562806Y0028036D01*
X0562838Y0027972D01*
X0562866Y0027907D01*
X0562890Y0027841D01*
X0562911Y0027773D01*
X0562928Y0027704D01*
X0562942Y0027634D01*
X0562951Y0027564D01*
X0562957Y0027493D01*
X0562959Y0027422D01*
X0562959Y0026767D01*
M02*
