G75*
%MOIN*%
%OFA0B0*%
%FSLAX25Y25*%
%IPPOS*%
%LPD*%
%AMOC8*
5,1,8,0,0,1.08239X$1,22.5*
%
%ADD10C,0.02300*%
%ADD11C,0.20800*%
%ADD12C,0.01000*%
%ADD13C,0.03300*%
D10*
X0106750Y0049750D03*
X0110750Y0049750D03*
X0161750Y0049750D03*
X0165750Y0049750D03*
X0216750Y0049750D03*
X0220750Y0049750D03*
X0271750Y0049750D03*
X0275750Y0049750D03*
X0326750Y0049750D03*
X0330750Y0049750D03*
X0381750Y0049750D03*
X0385750Y0049750D03*
X0385750Y0165250D03*
X0381750Y0165250D03*
X0355250Y0190250D03*
X0351250Y0190250D03*
X0330750Y0165250D03*
X0326750Y0165250D03*
X0275750Y0165250D03*
X0271750Y0165250D03*
X0247750Y0189750D03*
X0243750Y0189750D03*
X0220750Y0165250D03*
X0216750Y0165250D03*
X0166250Y0165250D03*
X0161250Y0165250D03*
X0133250Y0189750D03*
X0129250Y0189750D03*
X0110750Y0164750D03*
X0106750Y0164750D03*
X0074750Y0209250D03*
X0074750Y0213750D03*
X0129250Y0232750D03*
X0133250Y0232750D03*
X0244250Y0232750D03*
X0248250Y0232750D03*
X0351250Y0232750D03*
X0355250Y0232750D03*
X0417250Y0216750D03*
X0417250Y0212750D03*
X0082750Y0111250D03*
X0082750Y0107250D03*
D11*
X0108750Y0075250D03*
X0163750Y0075250D03*
X0218750Y0075250D03*
X0273750Y0075250D03*
X0328750Y0075250D03*
X0383750Y0075250D03*
X0383750Y0139750D03*
X0328750Y0139750D03*
X0273750Y0139750D03*
X0218750Y0139750D03*
X0163750Y0139750D03*
X0108750Y0139750D03*
X0108750Y0207250D03*
X0163750Y0207250D03*
X0218750Y0207250D03*
X0273750Y0207250D03*
X0326250Y0207250D03*
X0381250Y0207250D03*
X0443750Y0232250D03*
X0048750Y0232250D03*
D12*
X0061050Y0232446D02*
X0036250Y0232446D01*
X0036250Y0231448D02*
X0061050Y0231448D01*
X0061050Y0231450D02*
X0060990Y0229851D01*
X0060703Y0228276D01*
X0060197Y0226757D01*
X0059481Y0225326D01*
X0058570Y0224010D01*
X0057482Y0222837D01*
X0056238Y0221829D01*
X0054865Y0221007D01*
X0053389Y0220388D01*
X0051840Y0219984D01*
X0050250Y0219804D01*
X0048650Y0219850D01*
X0046965Y0219885D01*
X0045301Y0220159D01*
X0043694Y0220667D01*
X0042175Y0221399D01*
X0040776Y0222339D01*
X0039525Y0223469D01*
X0038448Y0224766D01*
X0037566Y0226202D01*
X0036897Y0227750D01*
X0036455Y0229377D01*
X0036250Y0231050D01*
X0036250Y0251450D01*
X0061050Y0251450D01*
X0061050Y0231450D01*
X0061012Y0230449D02*
X0036324Y0230449D01*
X0036446Y0229451D02*
X0060917Y0229451D01*
X0060736Y0228452D02*
X0036706Y0228452D01*
X0037025Y0227454D02*
X0060429Y0227454D01*
X0060046Y0226455D02*
X0037456Y0226455D01*
X0038023Y0225457D02*
X0059547Y0225457D01*
X0058880Y0224458D02*
X0038703Y0224458D01*
X0039536Y0223460D02*
X0058060Y0223460D01*
X0057019Y0222461D02*
X0040641Y0222461D01*
X0042080Y0221463D02*
X0055626Y0221463D01*
X0053570Y0220464D02*
X0044336Y0220464D01*
X0036250Y0233445D02*
X0061050Y0233445D01*
X0061050Y0234443D02*
X0036250Y0234443D01*
X0036250Y0235442D02*
X0061050Y0235442D01*
X0061050Y0236440D02*
X0036250Y0236440D01*
X0036250Y0237439D02*
X0061050Y0237439D01*
X0061050Y0238437D02*
X0036250Y0238437D01*
X0036250Y0239436D02*
X0061050Y0239436D01*
X0061050Y0240434D02*
X0036250Y0240434D01*
X0036250Y0241433D02*
X0061050Y0241433D01*
X0061050Y0242431D02*
X0036250Y0242431D01*
X0036250Y0243430D02*
X0061050Y0243430D01*
X0061050Y0244428D02*
X0036250Y0244428D01*
X0036250Y0245427D02*
X0061050Y0245427D01*
X0061050Y0246425D02*
X0036250Y0246425D01*
X0036250Y0247424D02*
X0061050Y0247424D01*
X0061050Y0248422D02*
X0036250Y0248422D01*
X0036250Y0249421D02*
X0061050Y0249421D01*
X0061050Y0250420D02*
X0036250Y0250420D01*
X0036250Y0251418D02*
X0061050Y0251418D01*
X0096250Y0226450D02*
X0096250Y0206050D01*
X0096455Y0204377D01*
X0096897Y0202750D01*
X0097566Y0201202D01*
X0098448Y0199766D01*
X0099525Y0198469D01*
X0100776Y0197339D01*
X0102175Y0196399D01*
X0103694Y0195667D01*
X0105301Y0195159D01*
X0106965Y0194885D01*
X0108650Y0194850D01*
X0110250Y0194804D01*
X0111840Y0194984D01*
X0113389Y0195388D01*
X0114865Y0196007D01*
X0116238Y0196829D01*
X0117482Y0197837D01*
X0118570Y0199010D01*
X0119481Y0200326D01*
X0120197Y0201757D01*
X0120703Y0203276D01*
X0120990Y0204851D01*
X0121050Y0206450D01*
X0121050Y0226450D01*
X0096250Y0226450D01*
X0096250Y0225457D02*
X0121050Y0225457D01*
X0121050Y0224458D02*
X0096250Y0224458D01*
X0096250Y0223460D02*
X0121050Y0223460D01*
X0121050Y0222461D02*
X0096250Y0222461D01*
X0096250Y0221463D02*
X0121050Y0221463D01*
X0121050Y0220464D02*
X0096250Y0220464D01*
X0096250Y0219466D02*
X0121050Y0219466D01*
X0121050Y0218467D02*
X0096250Y0218467D01*
X0096250Y0217469D02*
X0121050Y0217469D01*
X0121050Y0216470D02*
X0096250Y0216470D01*
X0096250Y0215472D02*
X0121050Y0215472D01*
X0121050Y0214473D02*
X0096250Y0214473D01*
X0096250Y0213475D02*
X0121050Y0213475D01*
X0121050Y0212476D02*
X0096250Y0212476D01*
X0096250Y0211478D02*
X0121050Y0211478D01*
X0121050Y0210479D02*
X0096250Y0210479D01*
X0096250Y0209481D02*
X0121050Y0209481D01*
X0121050Y0208482D02*
X0096250Y0208482D01*
X0096250Y0207484D02*
X0121050Y0207484D01*
X0121050Y0206485D02*
X0096250Y0206485D01*
X0096319Y0205487D02*
X0121014Y0205487D01*
X0120924Y0204488D02*
X0096442Y0204488D01*
X0096696Y0203489D02*
X0120742Y0203489D01*
X0120442Y0202491D02*
X0097009Y0202491D01*
X0097440Y0201492D02*
X0120065Y0201492D01*
X0119565Y0200494D02*
X0098000Y0200494D01*
X0098672Y0199495D02*
X0118906Y0199495D01*
X0118094Y0198497D02*
X0099502Y0198497D01*
X0100600Y0197498D02*
X0117065Y0197498D01*
X0115688Y0196500D02*
X0102025Y0196500D01*
X0104218Y0195501D02*
X0113659Y0195501D01*
X0151455Y0204377D02*
X0151897Y0202750D01*
X0152566Y0201202D01*
X0153448Y0199766D01*
X0154525Y0198469D01*
X0155776Y0197339D01*
X0157175Y0196399D01*
X0158694Y0195667D01*
X0160301Y0195159D01*
X0161965Y0194885D01*
X0163650Y0194850D01*
X0165250Y0194804D01*
X0166840Y0194984D01*
X0168389Y0195388D01*
X0169865Y0196007D01*
X0171238Y0196829D01*
X0172482Y0197837D01*
X0173570Y0199010D01*
X0174481Y0200326D01*
X0175197Y0201757D01*
X0175703Y0203276D01*
X0175990Y0204851D01*
X0176050Y0206450D01*
X0176050Y0226450D01*
X0151250Y0226450D01*
X0151250Y0206050D01*
X0151455Y0204377D01*
X0151442Y0204488D02*
X0175924Y0204488D01*
X0176014Y0205487D02*
X0151319Y0205487D01*
X0151250Y0206485D02*
X0176050Y0206485D01*
X0176050Y0207484D02*
X0151250Y0207484D01*
X0151250Y0208482D02*
X0176050Y0208482D01*
X0176050Y0209481D02*
X0151250Y0209481D01*
X0151250Y0210479D02*
X0176050Y0210479D01*
X0176050Y0211478D02*
X0151250Y0211478D01*
X0151250Y0212476D02*
X0176050Y0212476D01*
X0176050Y0213475D02*
X0151250Y0213475D01*
X0151250Y0214473D02*
X0176050Y0214473D01*
X0176050Y0215472D02*
X0151250Y0215472D01*
X0151250Y0216470D02*
X0176050Y0216470D01*
X0176050Y0217469D02*
X0151250Y0217469D01*
X0151250Y0218467D02*
X0176050Y0218467D01*
X0176050Y0219466D02*
X0151250Y0219466D01*
X0151250Y0220464D02*
X0176050Y0220464D01*
X0176050Y0221463D02*
X0151250Y0221463D01*
X0151250Y0222461D02*
X0176050Y0222461D01*
X0176050Y0223460D02*
X0151250Y0223460D01*
X0151250Y0224458D02*
X0176050Y0224458D01*
X0176050Y0225457D02*
X0151250Y0225457D01*
X0151696Y0203489D02*
X0175742Y0203489D01*
X0175442Y0202491D02*
X0152009Y0202491D01*
X0152440Y0201492D02*
X0175065Y0201492D01*
X0174565Y0200494D02*
X0153000Y0200494D01*
X0153672Y0199495D02*
X0173906Y0199495D01*
X0173094Y0198497D02*
X0154502Y0198497D01*
X0155600Y0197498D02*
X0172065Y0197498D01*
X0170688Y0196500D02*
X0157025Y0196500D01*
X0159218Y0195501D02*
X0168659Y0195501D01*
X0206455Y0204377D02*
X0206897Y0202750D01*
X0207566Y0201202D01*
X0208448Y0199766D01*
X0209525Y0198469D01*
X0210776Y0197339D01*
X0212175Y0196399D01*
X0213694Y0195667D01*
X0215301Y0195159D01*
X0216965Y0194885D01*
X0218650Y0194850D01*
X0220250Y0194804D01*
X0221840Y0194984D01*
X0223389Y0195388D01*
X0224865Y0196007D01*
X0226238Y0196829D01*
X0227482Y0197837D01*
X0228570Y0199010D01*
X0229481Y0200326D01*
X0230197Y0201757D01*
X0230703Y0203276D01*
X0230990Y0204851D01*
X0231050Y0206450D01*
X0231050Y0226450D01*
X0206250Y0226450D01*
X0206250Y0206050D01*
X0206455Y0204377D01*
X0206442Y0204488D02*
X0230924Y0204488D01*
X0231014Y0205487D02*
X0206319Y0205487D01*
X0206250Y0206485D02*
X0231050Y0206485D01*
X0231050Y0207484D02*
X0206250Y0207484D01*
X0206250Y0208482D02*
X0231050Y0208482D01*
X0231050Y0209481D02*
X0206250Y0209481D01*
X0206250Y0210479D02*
X0231050Y0210479D01*
X0231050Y0211478D02*
X0206250Y0211478D01*
X0206250Y0212476D02*
X0231050Y0212476D01*
X0231050Y0213475D02*
X0206250Y0213475D01*
X0206250Y0214473D02*
X0231050Y0214473D01*
X0231050Y0215472D02*
X0206250Y0215472D01*
X0206250Y0216470D02*
X0231050Y0216470D01*
X0231050Y0217469D02*
X0206250Y0217469D01*
X0206250Y0218467D02*
X0231050Y0218467D01*
X0231050Y0219466D02*
X0206250Y0219466D01*
X0206250Y0220464D02*
X0231050Y0220464D01*
X0231050Y0221463D02*
X0206250Y0221463D01*
X0206250Y0222461D02*
X0231050Y0222461D01*
X0231050Y0223460D02*
X0206250Y0223460D01*
X0206250Y0224458D02*
X0231050Y0224458D01*
X0231050Y0225457D02*
X0206250Y0225457D01*
X0206696Y0203489D02*
X0230742Y0203489D01*
X0230442Y0202491D02*
X0207009Y0202491D01*
X0207440Y0201492D02*
X0230065Y0201492D01*
X0229565Y0200494D02*
X0208000Y0200494D01*
X0208672Y0199495D02*
X0228906Y0199495D01*
X0228094Y0198497D02*
X0209502Y0198497D01*
X0210600Y0197498D02*
X0227065Y0197498D01*
X0225688Y0196500D02*
X0212025Y0196500D01*
X0214218Y0195501D02*
X0223659Y0195501D01*
X0261455Y0204377D02*
X0261897Y0202750D01*
X0262566Y0201202D01*
X0263448Y0199766D01*
X0264525Y0198469D01*
X0265776Y0197339D01*
X0267175Y0196399D01*
X0268694Y0195667D01*
X0270301Y0195159D01*
X0271965Y0194885D01*
X0273650Y0194850D01*
X0275250Y0194804D01*
X0276840Y0194984D01*
X0278389Y0195388D01*
X0279865Y0196007D01*
X0281238Y0196829D01*
X0282482Y0197837D01*
X0283570Y0199010D01*
X0284481Y0200326D01*
X0285197Y0201757D01*
X0285703Y0203276D01*
X0285990Y0204851D01*
X0286050Y0206450D01*
X0286050Y0226450D01*
X0261250Y0226450D01*
X0261250Y0206050D01*
X0261455Y0204377D01*
X0261442Y0204488D02*
X0285924Y0204488D01*
X0286014Y0205487D02*
X0261319Y0205487D01*
X0261250Y0206485D02*
X0286050Y0206485D01*
X0286050Y0207484D02*
X0261250Y0207484D01*
X0261250Y0208482D02*
X0286050Y0208482D01*
X0286050Y0209481D02*
X0261250Y0209481D01*
X0261250Y0210479D02*
X0286050Y0210479D01*
X0286050Y0211478D02*
X0261250Y0211478D01*
X0261250Y0212476D02*
X0286050Y0212476D01*
X0286050Y0213475D02*
X0261250Y0213475D01*
X0261250Y0214473D02*
X0286050Y0214473D01*
X0286050Y0215472D02*
X0261250Y0215472D01*
X0261250Y0216470D02*
X0286050Y0216470D01*
X0286050Y0217469D02*
X0261250Y0217469D01*
X0261250Y0218467D02*
X0286050Y0218467D01*
X0286050Y0219466D02*
X0261250Y0219466D01*
X0261250Y0220464D02*
X0286050Y0220464D01*
X0286050Y0221463D02*
X0261250Y0221463D01*
X0261250Y0222461D02*
X0286050Y0222461D01*
X0286050Y0223460D02*
X0261250Y0223460D01*
X0261250Y0224458D02*
X0286050Y0224458D01*
X0286050Y0225457D02*
X0261250Y0225457D01*
X0261696Y0203489D02*
X0285742Y0203489D01*
X0285442Y0202491D02*
X0262009Y0202491D01*
X0262440Y0201492D02*
X0285065Y0201492D01*
X0284565Y0200494D02*
X0263000Y0200494D01*
X0263672Y0199495D02*
X0283906Y0199495D01*
X0283094Y0198497D02*
X0264502Y0198497D01*
X0265600Y0197498D02*
X0282065Y0197498D01*
X0280688Y0196500D02*
X0267025Y0196500D01*
X0269218Y0195501D02*
X0278659Y0195501D01*
X0313955Y0204377D02*
X0314397Y0202750D01*
X0315066Y0201202D01*
X0315948Y0199766D01*
X0317025Y0198469D01*
X0318276Y0197339D01*
X0319675Y0196399D01*
X0321194Y0195667D01*
X0322801Y0195159D01*
X0324465Y0194885D01*
X0326150Y0194850D01*
X0327750Y0194804D01*
X0329340Y0194984D01*
X0330889Y0195388D01*
X0332365Y0196007D01*
X0333738Y0196829D01*
X0334982Y0197837D01*
X0336070Y0199010D01*
X0336981Y0200326D01*
X0337697Y0201757D01*
X0338203Y0203276D01*
X0338490Y0204851D01*
X0338550Y0206450D01*
X0338550Y0226450D01*
X0313750Y0226450D01*
X0313750Y0206050D01*
X0313955Y0204377D01*
X0313942Y0204488D02*
X0338424Y0204488D01*
X0338514Y0205487D02*
X0313819Y0205487D01*
X0313750Y0206485D02*
X0338550Y0206485D01*
X0338550Y0207484D02*
X0313750Y0207484D01*
X0313750Y0208482D02*
X0338550Y0208482D01*
X0338550Y0209481D02*
X0313750Y0209481D01*
X0313750Y0210479D02*
X0338550Y0210479D01*
X0338550Y0211478D02*
X0313750Y0211478D01*
X0313750Y0212476D02*
X0338550Y0212476D01*
X0338550Y0213475D02*
X0313750Y0213475D01*
X0313750Y0214473D02*
X0338550Y0214473D01*
X0338550Y0215472D02*
X0313750Y0215472D01*
X0313750Y0216470D02*
X0338550Y0216470D01*
X0338550Y0217469D02*
X0313750Y0217469D01*
X0313750Y0218467D02*
X0338550Y0218467D01*
X0338550Y0219466D02*
X0313750Y0219466D01*
X0313750Y0220464D02*
X0338550Y0220464D01*
X0338550Y0221463D02*
X0313750Y0221463D01*
X0313750Y0222461D02*
X0338550Y0222461D01*
X0338550Y0223460D02*
X0313750Y0223460D01*
X0313750Y0224458D02*
X0338550Y0224458D01*
X0338550Y0225457D02*
X0313750Y0225457D01*
X0314196Y0203489D02*
X0338242Y0203489D01*
X0337942Y0202491D02*
X0314509Y0202491D01*
X0314940Y0201492D02*
X0337565Y0201492D01*
X0337065Y0200494D02*
X0315500Y0200494D01*
X0316172Y0199495D02*
X0336406Y0199495D01*
X0335594Y0198497D02*
X0317002Y0198497D01*
X0318100Y0197498D02*
X0334565Y0197498D01*
X0333188Y0196500D02*
X0319525Y0196500D01*
X0321718Y0195501D02*
X0331159Y0195501D01*
X0368955Y0204377D02*
X0369397Y0202750D01*
X0370066Y0201202D01*
X0370948Y0199766D01*
X0372025Y0198469D01*
X0373276Y0197339D01*
X0374675Y0196399D01*
X0376194Y0195667D01*
X0377801Y0195159D01*
X0379465Y0194885D01*
X0381150Y0194850D01*
X0382750Y0194804D01*
X0384340Y0194984D01*
X0385889Y0195388D01*
X0387365Y0196007D01*
X0388738Y0196829D01*
X0389982Y0197837D01*
X0391070Y0199010D01*
X0391981Y0200326D01*
X0392697Y0201757D01*
X0393203Y0203276D01*
X0393490Y0204851D01*
X0393550Y0206450D01*
X0393550Y0226450D01*
X0368750Y0226450D01*
X0368750Y0206050D01*
X0368955Y0204377D01*
X0368942Y0204488D02*
X0393424Y0204488D01*
X0393514Y0205487D02*
X0368819Y0205487D01*
X0368750Y0206485D02*
X0393550Y0206485D01*
X0393550Y0207484D02*
X0368750Y0207484D01*
X0368750Y0208482D02*
X0393550Y0208482D01*
X0393550Y0209481D02*
X0368750Y0209481D01*
X0368750Y0210479D02*
X0393550Y0210479D01*
X0393550Y0211478D02*
X0368750Y0211478D01*
X0368750Y0212476D02*
X0393550Y0212476D01*
X0393550Y0213475D02*
X0368750Y0213475D01*
X0368750Y0214473D02*
X0393550Y0214473D01*
X0393550Y0215472D02*
X0368750Y0215472D01*
X0368750Y0216470D02*
X0393550Y0216470D01*
X0393550Y0217469D02*
X0368750Y0217469D01*
X0368750Y0218467D02*
X0393550Y0218467D01*
X0393550Y0219466D02*
X0368750Y0219466D01*
X0368750Y0220464D02*
X0393550Y0220464D01*
X0393550Y0221463D02*
X0368750Y0221463D01*
X0368750Y0222461D02*
X0393550Y0222461D01*
X0393550Y0223460D02*
X0368750Y0223460D01*
X0368750Y0224458D02*
X0393550Y0224458D01*
X0393550Y0225457D02*
X0368750Y0225457D01*
X0369196Y0203489D02*
X0393242Y0203489D01*
X0392942Y0202491D02*
X0369509Y0202491D01*
X0369940Y0201492D02*
X0392565Y0201492D01*
X0392065Y0200494D02*
X0370500Y0200494D01*
X0371172Y0199495D02*
X0391406Y0199495D01*
X0390594Y0198497D02*
X0372002Y0198497D01*
X0373100Y0197498D02*
X0389565Y0197498D01*
X0388188Y0196500D02*
X0374525Y0196500D01*
X0376718Y0195501D02*
X0386159Y0195501D01*
X0434525Y0223469D02*
X0435776Y0222339D01*
X0437175Y0221399D01*
X0438694Y0220667D01*
X0440301Y0220159D01*
X0441965Y0219885D01*
X0443650Y0219850D01*
X0445250Y0219804D01*
X0446840Y0219984D01*
X0448389Y0220388D01*
X0449865Y0221007D01*
X0451238Y0221829D01*
X0452482Y0222837D01*
X0453570Y0224010D01*
X0454481Y0225326D01*
X0455197Y0226757D01*
X0455703Y0228276D01*
X0455990Y0229851D01*
X0456050Y0231450D01*
X0456050Y0251450D01*
X0431250Y0251450D01*
X0431250Y0231050D01*
X0431455Y0229377D01*
X0431897Y0227750D01*
X0432566Y0226202D01*
X0433448Y0224766D01*
X0434525Y0223469D01*
X0434536Y0223460D02*
X0453060Y0223460D01*
X0453880Y0224458D02*
X0433703Y0224458D01*
X0433023Y0225457D02*
X0454547Y0225457D01*
X0455046Y0226455D02*
X0432456Y0226455D01*
X0432025Y0227454D02*
X0455429Y0227454D01*
X0455736Y0228452D02*
X0431706Y0228452D01*
X0431446Y0229451D02*
X0455917Y0229451D01*
X0456012Y0230449D02*
X0431324Y0230449D01*
X0431250Y0231448D02*
X0456050Y0231448D01*
X0456050Y0232446D02*
X0431250Y0232446D01*
X0431250Y0233445D02*
X0456050Y0233445D01*
X0456050Y0234443D02*
X0431250Y0234443D01*
X0431250Y0235442D02*
X0456050Y0235442D01*
X0456050Y0236440D02*
X0431250Y0236440D01*
X0431250Y0237439D02*
X0456050Y0237439D01*
X0456050Y0238437D02*
X0431250Y0238437D01*
X0431250Y0239436D02*
X0456050Y0239436D01*
X0456050Y0240434D02*
X0431250Y0240434D01*
X0431250Y0241433D02*
X0456050Y0241433D01*
X0456050Y0242431D02*
X0431250Y0242431D01*
X0431250Y0243430D02*
X0456050Y0243430D01*
X0456050Y0244428D02*
X0431250Y0244428D01*
X0431250Y0245427D02*
X0456050Y0245427D01*
X0456050Y0246425D02*
X0431250Y0246425D01*
X0431250Y0247424D02*
X0456050Y0247424D01*
X0456050Y0248422D02*
X0431250Y0248422D01*
X0431250Y0249421D02*
X0456050Y0249421D01*
X0456050Y0250420D02*
X0431250Y0250420D01*
X0431250Y0251418D02*
X0456050Y0251418D01*
X0452019Y0222461D02*
X0435641Y0222461D01*
X0437080Y0221463D02*
X0450626Y0221463D01*
X0448570Y0220464D02*
X0439336Y0220464D01*
X0396050Y0158950D02*
X0371250Y0158950D01*
X0371250Y0138550D01*
X0371455Y0136877D01*
X0371897Y0135250D01*
X0372566Y0133702D01*
X0373448Y0132266D01*
X0374525Y0130969D01*
X0375776Y0129839D01*
X0377175Y0128899D01*
X0378694Y0128167D01*
X0380301Y0127659D01*
X0381965Y0127385D01*
X0383650Y0127350D01*
X0385250Y0127304D01*
X0386840Y0127484D01*
X0388389Y0127888D01*
X0389865Y0128507D01*
X0391238Y0129329D01*
X0392482Y0130337D01*
X0393570Y0131510D01*
X0394481Y0132826D01*
X0395197Y0134257D01*
X0395703Y0135776D01*
X0395990Y0137351D01*
X0396050Y0138950D01*
X0396050Y0158950D01*
X0396050Y0158556D02*
X0371250Y0158556D01*
X0371250Y0157558D02*
X0396050Y0157558D01*
X0396050Y0156559D02*
X0371250Y0156559D01*
X0371250Y0155561D02*
X0396050Y0155561D01*
X0396050Y0154562D02*
X0371250Y0154562D01*
X0371250Y0153564D02*
X0396050Y0153564D01*
X0396050Y0152565D02*
X0371250Y0152565D01*
X0371250Y0151567D02*
X0396050Y0151567D01*
X0396050Y0150568D02*
X0371250Y0150568D01*
X0371250Y0149570D02*
X0396050Y0149570D01*
X0396050Y0148571D02*
X0371250Y0148571D01*
X0371250Y0147573D02*
X0396050Y0147573D01*
X0396050Y0146574D02*
X0371250Y0146574D01*
X0371250Y0145576D02*
X0396050Y0145576D01*
X0396050Y0144577D02*
X0371250Y0144577D01*
X0371250Y0143579D02*
X0396050Y0143579D01*
X0396050Y0142580D02*
X0371250Y0142580D01*
X0371250Y0141582D02*
X0396050Y0141582D01*
X0396050Y0140583D02*
X0371250Y0140583D01*
X0371250Y0139585D02*
X0396050Y0139585D01*
X0396036Y0138586D02*
X0371250Y0138586D01*
X0371368Y0137588D02*
X0395999Y0137588D01*
X0395851Y0136589D02*
X0371534Y0136589D01*
X0371805Y0135591D02*
X0395642Y0135591D01*
X0395309Y0134592D02*
X0372181Y0134592D01*
X0372632Y0133594D02*
X0394865Y0133594D01*
X0394322Y0132595D02*
X0373245Y0132595D01*
X0374004Y0131597D02*
X0393630Y0131597D01*
X0392724Y0130598D02*
X0374936Y0130598D01*
X0376133Y0129600D02*
X0391573Y0129600D01*
X0390022Y0128601D02*
X0377793Y0128601D01*
X0380643Y0127603D02*
X0387294Y0127603D01*
X0340703Y0135776D02*
X0340197Y0134257D01*
X0339481Y0132826D01*
X0338570Y0131510D01*
X0337482Y0130337D01*
X0336238Y0129329D01*
X0334865Y0128507D01*
X0333389Y0127888D01*
X0331840Y0127484D01*
X0330250Y0127304D01*
X0328650Y0127350D01*
X0326965Y0127385D01*
X0325301Y0127659D01*
X0323694Y0128167D01*
X0322175Y0128899D01*
X0320776Y0129839D01*
X0319525Y0130969D01*
X0318448Y0132266D01*
X0317566Y0133702D01*
X0316897Y0135250D01*
X0316455Y0136877D01*
X0316250Y0138550D01*
X0316250Y0158950D01*
X0341050Y0158950D01*
X0341050Y0138950D01*
X0340990Y0137351D01*
X0340703Y0135776D01*
X0340642Y0135591D02*
X0316805Y0135591D01*
X0316534Y0136589D02*
X0340851Y0136589D01*
X0340999Y0137588D02*
X0316368Y0137588D01*
X0316250Y0138586D02*
X0341036Y0138586D01*
X0341050Y0139585D02*
X0316250Y0139585D01*
X0316250Y0140583D02*
X0341050Y0140583D01*
X0341050Y0141582D02*
X0316250Y0141582D01*
X0316250Y0142580D02*
X0341050Y0142580D01*
X0341050Y0143579D02*
X0316250Y0143579D01*
X0316250Y0144577D02*
X0341050Y0144577D01*
X0341050Y0145576D02*
X0316250Y0145576D01*
X0316250Y0146574D02*
X0341050Y0146574D01*
X0341050Y0147573D02*
X0316250Y0147573D01*
X0316250Y0148571D02*
X0341050Y0148571D01*
X0341050Y0149570D02*
X0316250Y0149570D01*
X0316250Y0150568D02*
X0341050Y0150568D01*
X0341050Y0151567D02*
X0316250Y0151567D01*
X0316250Y0152565D02*
X0341050Y0152565D01*
X0341050Y0153564D02*
X0316250Y0153564D01*
X0316250Y0154562D02*
X0341050Y0154562D01*
X0341050Y0155561D02*
X0316250Y0155561D01*
X0316250Y0156559D02*
X0341050Y0156559D01*
X0341050Y0157558D02*
X0316250Y0157558D01*
X0316250Y0158556D02*
X0341050Y0158556D01*
X0340309Y0134592D02*
X0317181Y0134592D01*
X0317632Y0133594D02*
X0339865Y0133594D01*
X0339322Y0132595D02*
X0318245Y0132595D01*
X0319004Y0131597D02*
X0338630Y0131597D01*
X0337724Y0130598D02*
X0319936Y0130598D01*
X0321133Y0129600D02*
X0336573Y0129600D01*
X0335022Y0128601D02*
X0322793Y0128601D01*
X0325643Y0127603D02*
X0332294Y0127603D01*
X0285703Y0135776D02*
X0285197Y0134257D01*
X0284481Y0132826D01*
X0283570Y0131510D01*
X0282482Y0130337D01*
X0281238Y0129329D01*
X0279865Y0128507D01*
X0278389Y0127888D01*
X0276840Y0127484D01*
X0275250Y0127304D01*
X0273650Y0127350D01*
X0271965Y0127385D01*
X0270301Y0127659D01*
X0268694Y0128167D01*
X0267175Y0128899D01*
X0265776Y0129839D01*
X0264525Y0130969D01*
X0263448Y0132266D01*
X0262566Y0133702D01*
X0261897Y0135250D01*
X0261455Y0136877D01*
X0261250Y0138550D01*
X0261250Y0158950D01*
X0286050Y0158950D01*
X0286050Y0138950D01*
X0285990Y0137351D01*
X0285703Y0135776D01*
X0285642Y0135591D02*
X0261805Y0135591D01*
X0261534Y0136589D02*
X0285851Y0136589D01*
X0285999Y0137588D02*
X0261368Y0137588D01*
X0261250Y0138586D02*
X0286036Y0138586D01*
X0286050Y0139585D02*
X0261250Y0139585D01*
X0261250Y0140583D02*
X0286050Y0140583D01*
X0286050Y0141582D02*
X0261250Y0141582D01*
X0261250Y0142580D02*
X0286050Y0142580D01*
X0286050Y0143579D02*
X0261250Y0143579D01*
X0261250Y0144577D02*
X0286050Y0144577D01*
X0286050Y0145576D02*
X0261250Y0145576D01*
X0261250Y0146574D02*
X0286050Y0146574D01*
X0286050Y0147573D02*
X0261250Y0147573D01*
X0261250Y0148571D02*
X0286050Y0148571D01*
X0286050Y0149570D02*
X0261250Y0149570D01*
X0261250Y0150568D02*
X0286050Y0150568D01*
X0286050Y0151567D02*
X0261250Y0151567D01*
X0261250Y0152565D02*
X0286050Y0152565D01*
X0286050Y0153564D02*
X0261250Y0153564D01*
X0261250Y0154562D02*
X0286050Y0154562D01*
X0286050Y0155561D02*
X0261250Y0155561D01*
X0261250Y0156559D02*
X0286050Y0156559D01*
X0286050Y0157558D02*
X0261250Y0157558D01*
X0261250Y0158556D02*
X0286050Y0158556D01*
X0285309Y0134592D02*
X0262181Y0134592D01*
X0262632Y0133594D02*
X0284865Y0133594D01*
X0284322Y0132595D02*
X0263245Y0132595D01*
X0264004Y0131597D02*
X0283630Y0131597D01*
X0282724Y0130598D02*
X0264936Y0130598D01*
X0266133Y0129600D02*
X0281573Y0129600D01*
X0280022Y0128601D02*
X0267793Y0128601D01*
X0270643Y0127603D02*
X0277294Y0127603D01*
X0230703Y0135776D02*
X0230197Y0134257D01*
X0229481Y0132826D01*
X0228570Y0131510D01*
X0227482Y0130337D01*
X0226238Y0129329D01*
X0224865Y0128507D01*
X0223389Y0127888D01*
X0221840Y0127484D01*
X0220250Y0127304D01*
X0218650Y0127350D01*
X0216965Y0127385D01*
X0215301Y0127659D01*
X0213694Y0128167D01*
X0212175Y0128899D01*
X0210776Y0129839D01*
X0209525Y0130969D01*
X0208448Y0132266D01*
X0207566Y0133702D01*
X0206897Y0135250D01*
X0206455Y0136877D01*
X0206250Y0138550D01*
X0206250Y0158950D01*
X0231050Y0158950D01*
X0231050Y0138950D01*
X0230990Y0137351D01*
X0230703Y0135776D01*
X0230642Y0135591D02*
X0206805Y0135591D01*
X0206534Y0136589D02*
X0230851Y0136589D01*
X0230999Y0137588D02*
X0206368Y0137588D01*
X0206250Y0138586D02*
X0231036Y0138586D01*
X0231050Y0139585D02*
X0206250Y0139585D01*
X0206250Y0140583D02*
X0231050Y0140583D01*
X0231050Y0141582D02*
X0206250Y0141582D01*
X0206250Y0142580D02*
X0231050Y0142580D01*
X0231050Y0143579D02*
X0206250Y0143579D01*
X0206250Y0144577D02*
X0231050Y0144577D01*
X0231050Y0145576D02*
X0206250Y0145576D01*
X0206250Y0146574D02*
X0231050Y0146574D01*
X0231050Y0147573D02*
X0206250Y0147573D01*
X0206250Y0148571D02*
X0231050Y0148571D01*
X0231050Y0149570D02*
X0206250Y0149570D01*
X0206250Y0150568D02*
X0231050Y0150568D01*
X0231050Y0151567D02*
X0206250Y0151567D01*
X0206250Y0152565D02*
X0231050Y0152565D01*
X0231050Y0153564D02*
X0206250Y0153564D01*
X0206250Y0154562D02*
X0231050Y0154562D01*
X0231050Y0155561D02*
X0206250Y0155561D01*
X0206250Y0156559D02*
X0231050Y0156559D01*
X0231050Y0157558D02*
X0206250Y0157558D01*
X0206250Y0158556D02*
X0231050Y0158556D01*
X0230309Y0134592D02*
X0207181Y0134592D01*
X0207632Y0133594D02*
X0229865Y0133594D01*
X0229322Y0132595D02*
X0208245Y0132595D01*
X0209004Y0131597D02*
X0228630Y0131597D01*
X0227724Y0130598D02*
X0209936Y0130598D01*
X0211133Y0129600D02*
X0226573Y0129600D01*
X0225022Y0128601D02*
X0212793Y0128601D01*
X0215643Y0127603D02*
X0222294Y0127603D01*
X0175703Y0135776D02*
X0175990Y0137351D01*
X0176050Y0138950D01*
X0176050Y0158950D01*
X0151250Y0158950D01*
X0151250Y0138550D01*
X0151455Y0136877D01*
X0151897Y0135250D01*
X0152566Y0133702D01*
X0153448Y0132266D01*
X0154525Y0130969D01*
X0155776Y0129839D01*
X0157175Y0128899D01*
X0158694Y0128167D01*
X0160301Y0127659D01*
X0161965Y0127385D01*
X0163650Y0127350D01*
X0165250Y0127304D01*
X0166840Y0127484D01*
X0168389Y0127888D01*
X0169865Y0128507D01*
X0171238Y0129329D01*
X0172482Y0130337D01*
X0173570Y0131510D01*
X0174481Y0132826D01*
X0175197Y0134257D01*
X0175703Y0135776D01*
X0175642Y0135591D02*
X0151805Y0135591D01*
X0151534Y0136589D02*
X0175851Y0136589D01*
X0175999Y0137588D02*
X0151368Y0137588D01*
X0151250Y0138586D02*
X0176036Y0138586D01*
X0176050Y0139585D02*
X0151250Y0139585D01*
X0151250Y0140583D02*
X0176050Y0140583D01*
X0176050Y0141582D02*
X0151250Y0141582D01*
X0151250Y0142580D02*
X0176050Y0142580D01*
X0176050Y0143579D02*
X0151250Y0143579D01*
X0151250Y0144577D02*
X0176050Y0144577D01*
X0176050Y0145576D02*
X0151250Y0145576D01*
X0151250Y0146574D02*
X0176050Y0146574D01*
X0176050Y0147573D02*
X0151250Y0147573D01*
X0151250Y0148571D02*
X0176050Y0148571D01*
X0176050Y0149570D02*
X0151250Y0149570D01*
X0151250Y0150568D02*
X0176050Y0150568D01*
X0176050Y0151567D02*
X0151250Y0151567D01*
X0151250Y0152565D02*
X0176050Y0152565D01*
X0176050Y0153564D02*
X0151250Y0153564D01*
X0151250Y0154562D02*
X0176050Y0154562D01*
X0176050Y0155561D02*
X0151250Y0155561D01*
X0151250Y0156559D02*
X0176050Y0156559D01*
X0176050Y0157558D02*
X0151250Y0157558D01*
X0151250Y0158556D02*
X0176050Y0158556D01*
X0175309Y0134592D02*
X0152181Y0134592D01*
X0152632Y0133594D02*
X0174865Y0133594D01*
X0174322Y0132595D02*
X0153245Y0132595D01*
X0154004Y0131597D02*
X0173630Y0131597D01*
X0172724Y0130598D02*
X0154936Y0130598D01*
X0156133Y0129600D02*
X0171573Y0129600D01*
X0170022Y0128601D02*
X0157793Y0128601D01*
X0160643Y0127603D02*
X0167294Y0127603D01*
X0120703Y0135776D02*
X0120197Y0134257D01*
X0119481Y0132826D01*
X0118570Y0131510D01*
X0117482Y0130337D01*
X0116238Y0129329D01*
X0114865Y0128507D01*
X0113389Y0127888D01*
X0111840Y0127484D01*
X0110250Y0127304D01*
X0108650Y0127350D01*
X0106965Y0127385D01*
X0105301Y0127659D01*
X0103694Y0128167D01*
X0102175Y0128899D01*
X0100776Y0129839D01*
X0099525Y0130969D01*
X0098448Y0132266D01*
X0097566Y0133702D01*
X0096897Y0135250D01*
X0096455Y0136877D01*
X0096250Y0138550D01*
X0096250Y0158950D01*
X0121050Y0158950D01*
X0121050Y0138950D01*
X0120990Y0137351D01*
X0120703Y0135776D01*
X0120642Y0135591D02*
X0096805Y0135591D01*
X0096534Y0136589D02*
X0120851Y0136589D01*
X0120999Y0137588D02*
X0096368Y0137588D01*
X0096250Y0138586D02*
X0121036Y0138586D01*
X0121050Y0139585D02*
X0096250Y0139585D01*
X0096250Y0140583D02*
X0121050Y0140583D01*
X0121050Y0141582D02*
X0096250Y0141582D01*
X0096250Y0142580D02*
X0121050Y0142580D01*
X0121050Y0143579D02*
X0096250Y0143579D01*
X0096250Y0144577D02*
X0121050Y0144577D01*
X0121050Y0145576D02*
X0096250Y0145576D01*
X0096250Y0146574D02*
X0121050Y0146574D01*
X0121050Y0147573D02*
X0096250Y0147573D01*
X0096250Y0148571D02*
X0121050Y0148571D01*
X0121050Y0149570D02*
X0096250Y0149570D01*
X0096250Y0150568D02*
X0121050Y0150568D01*
X0121050Y0151567D02*
X0096250Y0151567D01*
X0096250Y0152565D02*
X0121050Y0152565D01*
X0121050Y0153564D02*
X0096250Y0153564D01*
X0096250Y0154562D02*
X0121050Y0154562D01*
X0121050Y0155561D02*
X0096250Y0155561D01*
X0096250Y0156559D02*
X0121050Y0156559D01*
X0121050Y0157558D02*
X0096250Y0157558D01*
X0096250Y0158556D02*
X0121050Y0158556D01*
X0120309Y0134592D02*
X0097181Y0134592D01*
X0097632Y0133594D02*
X0119865Y0133594D01*
X0119322Y0132595D02*
X0098245Y0132595D01*
X0099004Y0131597D02*
X0118630Y0131597D01*
X0117724Y0130598D02*
X0099936Y0130598D01*
X0101133Y0129600D02*
X0116573Y0129600D01*
X0115022Y0128601D02*
X0102793Y0128601D01*
X0105643Y0127603D02*
X0112294Y0127603D01*
X0110535Y0087615D02*
X0112199Y0087341D01*
X0113806Y0086833D01*
X0115325Y0086101D01*
X0116724Y0085161D01*
X0117975Y0084031D01*
X0119052Y0082734D01*
X0119934Y0081298D01*
X0120603Y0079750D01*
X0121045Y0078123D01*
X0121250Y0076450D01*
X0121250Y0056050D01*
X0096450Y0056050D01*
X0096450Y0076050D01*
X0096510Y0077649D01*
X0096797Y0079224D01*
X0097303Y0080743D01*
X0098019Y0082174D01*
X0098930Y0083490D01*
X0100018Y0084663D01*
X0101262Y0085671D01*
X0102635Y0086493D01*
X0104111Y0087112D01*
X0105660Y0087516D01*
X0107250Y0087696D01*
X0108850Y0087650D01*
X0110535Y0087615D01*
X0108429Y0087662D02*
X0106950Y0087662D01*
X0103043Y0086664D02*
X0114157Y0086664D01*
X0115974Y0085665D02*
X0101254Y0085665D01*
X0100022Y0084667D02*
X0117271Y0084667D01*
X0118276Y0083668D02*
X0099095Y0083668D01*
X0098362Y0082670D02*
X0119092Y0082670D01*
X0119705Y0081671D02*
X0097767Y0081671D01*
X0097279Y0080673D02*
X0120204Y0080673D01*
X0120624Y0079674D02*
X0096947Y0079674D01*
X0096697Y0078676D02*
X0120895Y0078676D01*
X0121099Y0077677D02*
X0096515Y0077677D01*
X0096474Y0076679D02*
X0121222Y0076679D01*
X0121250Y0075680D02*
X0096450Y0075680D01*
X0096450Y0074682D02*
X0121250Y0074682D01*
X0121250Y0073683D02*
X0096450Y0073683D01*
X0096450Y0072684D02*
X0121250Y0072684D01*
X0121250Y0071686D02*
X0096450Y0071686D01*
X0096450Y0070687D02*
X0121250Y0070687D01*
X0121250Y0069689D02*
X0096450Y0069689D01*
X0096450Y0068690D02*
X0121250Y0068690D01*
X0121250Y0067692D02*
X0096450Y0067692D01*
X0096450Y0066693D02*
X0121250Y0066693D01*
X0121250Y0065695D02*
X0096450Y0065695D01*
X0096450Y0064696D02*
X0121250Y0064696D01*
X0121250Y0063698D02*
X0096450Y0063698D01*
X0096450Y0062699D02*
X0121250Y0062699D01*
X0121250Y0061701D02*
X0096450Y0061701D01*
X0096450Y0060702D02*
X0121250Y0060702D01*
X0121250Y0059704D02*
X0096450Y0059704D01*
X0096450Y0058705D02*
X0121250Y0058705D01*
X0121250Y0057707D02*
X0096450Y0057707D01*
X0096450Y0056708D02*
X0121250Y0056708D01*
X0151450Y0056708D02*
X0176250Y0056708D01*
X0176250Y0056050D02*
X0176250Y0076450D01*
X0176045Y0078123D01*
X0175603Y0079750D01*
X0174934Y0081298D01*
X0174052Y0082734D01*
X0172975Y0084031D01*
X0171724Y0085161D01*
X0170325Y0086101D01*
X0168806Y0086833D01*
X0167199Y0087341D01*
X0165535Y0087615D01*
X0163850Y0087650D01*
X0162250Y0087696D01*
X0160660Y0087516D01*
X0159111Y0087112D01*
X0157635Y0086493D01*
X0156262Y0085671D01*
X0155018Y0084663D01*
X0153930Y0083490D01*
X0153019Y0082174D01*
X0152303Y0080743D01*
X0151797Y0079224D01*
X0151510Y0077649D01*
X0151450Y0076050D01*
X0151450Y0056050D01*
X0176250Y0056050D01*
X0176250Y0057707D02*
X0151450Y0057707D01*
X0151450Y0058705D02*
X0176250Y0058705D01*
X0176250Y0059704D02*
X0151450Y0059704D01*
X0151450Y0060702D02*
X0176250Y0060702D01*
X0176250Y0061701D02*
X0151450Y0061701D01*
X0151450Y0062699D02*
X0176250Y0062699D01*
X0176250Y0063698D02*
X0151450Y0063698D01*
X0151450Y0064696D02*
X0176250Y0064696D01*
X0176250Y0065695D02*
X0151450Y0065695D01*
X0151450Y0066693D02*
X0176250Y0066693D01*
X0176250Y0067692D02*
X0151450Y0067692D01*
X0151450Y0068690D02*
X0176250Y0068690D01*
X0176250Y0069689D02*
X0151450Y0069689D01*
X0151450Y0070687D02*
X0176250Y0070687D01*
X0176250Y0071686D02*
X0151450Y0071686D01*
X0151450Y0072684D02*
X0176250Y0072684D01*
X0176250Y0073683D02*
X0151450Y0073683D01*
X0151450Y0074682D02*
X0176250Y0074682D01*
X0176250Y0075680D02*
X0151450Y0075680D01*
X0151474Y0076679D02*
X0176222Y0076679D01*
X0176099Y0077677D02*
X0151515Y0077677D01*
X0151697Y0078676D02*
X0175895Y0078676D01*
X0175624Y0079674D02*
X0151947Y0079674D01*
X0152279Y0080673D02*
X0175204Y0080673D01*
X0174705Y0081671D02*
X0152767Y0081671D01*
X0153362Y0082670D02*
X0174092Y0082670D01*
X0173276Y0083668D02*
X0154095Y0083668D01*
X0155022Y0084667D02*
X0172271Y0084667D01*
X0170974Y0085665D02*
X0156254Y0085665D01*
X0158043Y0086664D02*
X0169157Y0086664D01*
X0163429Y0087662D02*
X0161950Y0087662D01*
X0206797Y0079224D02*
X0207303Y0080743D01*
X0208019Y0082174D01*
X0208930Y0083490D01*
X0210018Y0084663D01*
X0211262Y0085671D01*
X0212635Y0086493D01*
X0214111Y0087112D01*
X0215660Y0087516D01*
X0217250Y0087696D01*
X0218850Y0087650D01*
X0220535Y0087615D01*
X0222199Y0087341D01*
X0223806Y0086833D01*
X0225325Y0086101D01*
X0226724Y0085161D01*
X0227975Y0084031D01*
X0229052Y0082734D01*
X0229934Y0081298D01*
X0230603Y0079750D01*
X0231045Y0078123D01*
X0231250Y0076450D01*
X0231250Y0056050D01*
X0206450Y0056050D01*
X0206450Y0076050D01*
X0206510Y0077649D01*
X0206797Y0079224D01*
X0206947Y0079674D02*
X0230624Y0079674D01*
X0230895Y0078676D02*
X0206697Y0078676D01*
X0206515Y0077677D02*
X0231099Y0077677D01*
X0231222Y0076679D02*
X0206474Y0076679D01*
X0206450Y0075680D02*
X0231250Y0075680D01*
X0231250Y0074682D02*
X0206450Y0074682D01*
X0206450Y0073683D02*
X0231250Y0073683D01*
X0231250Y0072684D02*
X0206450Y0072684D01*
X0206450Y0071686D02*
X0231250Y0071686D01*
X0231250Y0070687D02*
X0206450Y0070687D01*
X0206450Y0069689D02*
X0231250Y0069689D01*
X0231250Y0068690D02*
X0206450Y0068690D01*
X0206450Y0067692D02*
X0231250Y0067692D01*
X0231250Y0066693D02*
X0206450Y0066693D01*
X0206450Y0065695D02*
X0231250Y0065695D01*
X0231250Y0064696D02*
X0206450Y0064696D01*
X0206450Y0063698D02*
X0231250Y0063698D01*
X0231250Y0062699D02*
X0206450Y0062699D01*
X0206450Y0061701D02*
X0231250Y0061701D01*
X0231250Y0060702D02*
X0206450Y0060702D01*
X0206450Y0059704D02*
X0231250Y0059704D01*
X0231250Y0058705D02*
X0206450Y0058705D01*
X0206450Y0057707D02*
X0231250Y0057707D01*
X0231250Y0056708D02*
X0206450Y0056708D01*
X0207279Y0080673D02*
X0230204Y0080673D01*
X0229705Y0081671D02*
X0207767Y0081671D01*
X0208362Y0082670D02*
X0229092Y0082670D01*
X0228276Y0083668D02*
X0209095Y0083668D01*
X0210022Y0084667D02*
X0227271Y0084667D01*
X0225974Y0085665D02*
X0211254Y0085665D01*
X0213043Y0086664D02*
X0224157Y0086664D01*
X0218429Y0087662D02*
X0216950Y0087662D01*
X0261797Y0079224D02*
X0262303Y0080743D01*
X0263019Y0082174D01*
X0263930Y0083490D01*
X0265018Y0084663D01*
X0266262Y0085671D01*
X0267635Y0086493D01*
X0269111Y0087112D01*
X0270660Y0087516D01*
X0272250Y0087696D01*
X0273850Y0087650D01*
X0275535Y0087615D01*
X0277199Y0087341D01*
X0278806Y0086833D01*
X0280325Y0086101D01*
X0281724Y0085161D01*
X0282975Y0084031D01*
X0284052Y0082734D01*
X0284934Y0081298D01*
X0285603Y0079750D01*
X0286045Y0078123D01*
X0286250Y0076450D01*
X0286250Y0056050D01*
X0261450Y0056050D01*
X0261450Y0076050D01*
X0261510Y0077649D01*
X0261797Y0079224D01*
X0261947Y0079674D02*
X0285624Y0079674D01*
X0285895Y0078676D02*
X0261697Y0078676D01*
X0261515Y0077677D02*
X0286099Y0077677D01*
X0286222Y0076679D02*
X0261474Y0076679D01*
X0261450Y0075680D02*
X0286250Y0075680D01*
X0286250Y0074682D02*
X0261450Y0074682D01*
X0261450Y0073683D02*
X0286250Y0073683D01*
X0286250Y0072684D02*
X0261450Y0072684D01*
X0261450Y0071686D02*
X0286250Y0071686D01*
X0286250Y0070687D02*
X0261450Y0070687D01*
X0261450Y0069689D02*
X0286250Y0069689D01*
X0286250Y0068690D02*
X0261450Y0068690D01*
X0261450Y0067692D02*
X0286250Y0067692D01*
X0286250Y0066693D02*
X0261450Y0066693D01*
X0261450Y0065695D02*
X0286250Y0065695D01*
X0286250Y0064696D02*
X0261450Y0064696D01*
X0261450Y0063698D02*
X0286250Y0063698D01*
X0286250Y0062699D02*
X0261450Y0062699D01*
X0261450Y0061701D02*
X0286250Y0061701D01*
X0286250Y0060702D02*
X0261450Y0060702D01*
X0261450Y0059704D02*
X0286250Y0059704D01*
X0286250Y0058705D02*
X0261450Y0058705D01*
X0261450Y0057707D02*
X0286250Y0057707D01*
X0286250Y0056708D02*
X0261450Y0056708D01*
X0262279Y0080673D02*
X0285204Y0080673D01*
X0284705Y0081671D02*
X0262767Y0081671D01*
X0263362Y0082670D02*
X0284092Y0082670D01*
X0283276Y0083668D02*
X0264095Y0083668D01*
X0265022Y0084667D02*
X0282271Y0084667D01*
X0280974Y0085665D02*
X0266254Y0085665D01*
X0268043Y0086664D02*
X0279157Y0086664D01*
X0273429Y0087662D02*
X0271950Y0087662D01*
X0316797Y0079224D02*
X0317303Y0080743D01*
X0318019Y0082174D01*
X0318930Y0083490D01*
X0320018Y0084663D01*
X0321262Y0085671D01*
X0322635Y0086493D01*
X0324111Y0087112D01*
X0325660Y0087516D01*
X0327250Y0087696D01*
X0328850Y0087650D01*
X0330535Y0087615D01*
X0332199Y0087341D01*
X0333806Y0086833D01*
X0335325Y0086101D01*
X0336724Y0085161D01*
X0337975Y0084031D01*
X0339052Y0082734D01*
X0339934Y0081298D01*
X0340603Y0079750D01*
X0341045Y0078123D01*
X0341250Y0076450D01*
X0341250Y0056050D01*
X0316450Y0056050D01*
X0316450Y0076050D01*
X0316510Y0077649D01*
X0316797Y0079224D01*
X0316947Y0079674D02*
X0340624Y0079674D01*
X0340895Y0078676D02*
X0316697Y0078676D01*
X0316515Y0077677D02*
X0341099Y0077677D01*
X0341222Y0076679D02*
X0316474Y0076679D01*
X0316450Y0075680D02*
X0341250Y0075680D01*
X0341250Y0074682D02*
X0316450Y0074682D01*
X0316450Y0073683D02*
X0341250Y0073683D01*
X0341250Y0072684D02*
X0316450Y0072684D01*
X0316450Y0071686D02*
X0341250Y0071686D01*
X0341250Y0070687D02*
X0316450Y0070687D01*
X0316450Y0069689D02*
X0341250Y0069689D01*
X0341250Y0068690D02*
X0316450Y0068690D01*
X0316450Y0067692D02*
X0341250Y0067692D01*
X0341250Y0066693D02*
X0316450Y0066693D01*
X0316450Y0065695D02*
X0341250Y0065695D01*
X0341250Y0064696D02*
X0316450Y0064696D01*
X0316450Y0063698D02*
X0341250Y0063698D01*
X0341250Y0062699D02*
X0316450Y0062699D01*
X0316450Y0061701D02*
X0341250Y0061701D01*
X0341250Y0060702D02*
X0316450Y0060702D01*
X0316450Y0059704D02*
X0341250Y0059704D01*
X0341250Y0058705D02*
X0316450Y0058705D01*
X0316450Y0057707D02*
X0341250Y0057707D01*
X0341250Y0056708D02*
X0316450Y0056708D01*
X0317279Y0080673D02*
X0340204Y0080673D01*
X0339705Y0081671D02*
X0317767Y0081671D01*
X0318362Y0082670D02*
X0339092Y0082670D01*
X0338276Y0083668D02*
X0319095Y0083668D01*
X0320022Y0084667D02*
X0337271Y0084667D01*
X0335974Y0085665D02*
X0321254Y0085665D01*
X0323043Y0086664D02*
X0334157Y0086664D01*
X0328429Y0087662D02*
X0326950Y0087662D01*
X0371797Y0079224D02*
X0372303Y0080743D01*
X0373019Y0082174D01*
X0373930Y0083490D01*
X0375018Y0084663D01*
X0376262Y0085671D01*
X0377635Y0086493D01*
X0379111Y0087112D01*
X0380660Y0087516D01*
X0382250Y0087696D01*
X0383850Y0087650D01*
X0385535Y0087615D01*
X0387199Y0087341D01*
X0388806Y0086833D01*
X0390325Y0086101D01*
X0391724Y0085161D01*
X0392975Y0084031D01*
X0394052Y0082734D01*
X0394934Y0081298D01*
X0395603Y0079750D01*
X0396045Y0078123D01*
X0396250Y0076450D01*
X0396250Y0056050D01*
X0371450Y0056050D01*
X0371450Y0076050D01*
X0371510Y0077649D01*
X0371797Y0079224D01*
X0371947Y0079674D02*
X0395624Y0079674D01*
X0395895Y0078676D02*
X0371697Y0078676D01*
X0371515Y0077677D02*
X0396099Y0077677D01*
X0396222Y0076679D02*
X0371474Y0076679D01*
X0371450Y0075680D02*
X0396250Y0075680D01*
X0396250Y0074682D02*
X0371450Y0074682D01*
X0371450Y0073683D02*
X0396250Y0073683D01*
X0396250Y0072684D02*
X0371450Y0072684D01*
X0371450Y0071686D02*
X0396250Y0071686D01*
X0396250Y0070687D02*
X0371450Y0070687D01*
X0371450Y0069689D02*
X0396250Y0069689D01*
X0396250Y0068690D02*
X0371450Y0068690D01*
X0371450Y0067692D02*
X0396250Y0067692D01*
X0396250Y0066693D02*
X0371450Y0066693D01*
X0371450Y0065695D02*
X0396250Y0065695D01*
X0396250Y0064696D02*
X0371450Y0064696D01*
X0371450Y0063698D02*
X0396250Y0063698D01*
X0396250Y0062699D02*
X0371450Y0062699D01*
X0371450Y0061701D02*
X0396250Y0061701D01*
X0396250Y0060702D02*
X0371450Y0060702D01*
X0371450Y0059704D02*
X0396250Y0059704D01*
X0396250Y0058705D02*
X0371450Y0058705D01*
X0371450Y0057707D02*
X0396250Y0057707D01*
X0396250Y0056708D02*
X0371450Y0056708D01*
X0372279Y0080673D02*
X0395204Y0080673D01*
X0394705Y0081671D02*
X0372767Y0081671D01*
X0373362Y0082670D02*
X0394092Y0082670D01*
X0393276Y0083668D02*
X0374095Y0083668D01*
X0375022Y0084667D02*
X0392271Y0084667D01*
X0390974Y0085665D02*
X0376254Y0085665D01*
X0378043Y0086664D02*
X0389157Y0086664D01*
X0383429Y0087662D02*
X0381950Y0087662D01*
D13*
X0088750Y0038750D03*
X0438750Y0191250D03*
M02*
